<?xml version="1.0" standalone="no"?>
<!DOCTYPE svg PUBLIC "-//W3C//DTD SVG 20010904//EN"
 "http://www.w3.org/TR/2001/REC-SVG-20010904/DTD/svg10.dtd">
<svg version="1.0" xmlns="http://www.w3.org/2000/svg"
 width="640.000000pt" height="1280.000000pt" viewBox="0 0 640.000000 1280.000000"
 preserveAspectRatio="xMidYMid meet">
<metadata>
Created by potrace 1.15, written by Peter Selinger 2001-2017
</metadata>
<g transform="translate(0.000000,1280.000000) scale(0.100000,-0.100000)"
fill="#000000" stroke="none">
<path d="M5895 12782 c-22 -11 -58 -39 -80 -62 -22 -23 -103 -89 -180 -147
-322 -239 -308 -224 -365 -403 -65 -205 -80 -223 -465 -605 -244 -241 -309
-318 -453 -535 -177 -264 -208 -342 -272 -685 -71 -380 -97 -421 -555 -885
-154 -157 -309 -322 -343 -368 -78 -104 -159 -242 -222 -375 -26 -56 -71 -142
-100 -191 -87 -148 -108 -200 -130 -336 -52 -315 -34 -599 62 -975 38 -150 41
-169 42 -310 1 -135 -1 -155 -21 -198 -28 -61 -111 -148 -238 -250 -162 -131
-401 -364 -495 -482 -48 -60 -106 -127 -128 -147 l-42 -38 -142 2 c-128 2
-154 -1 -247 -26 -305 -80 -473 -171 -674 -365 -106 -103 -242 -259 -304 -351
-161 -238 -243 -583 -214 -895 18 -181 42 -286 111 -479 27 -76 21 -110 -31
-177 -51 -63 -76 -118 -85 -186 -9 -73 2 -117 39 -154 54 -54 86 -69 152 -69
l60 0 35 -56 c76 -122 152 -163 240 -131 l45 17 22 -28 c13 -15 23 -32 23 -38
0 -6 -16 -32 -35 -58 -48 -62 -59 -97 -108 -331 l-41 -200 -1 -315 c0 -283 2
-328 22 -440 13 -69 27 -199 33 -290 17 -273 73 -583 155 -862 48 -160 95
-258 143 -298 75 -62 194 -75 280 -31 92 47 424 318 627 511 240 229 264 257
556 646 307 408 406 548 546 774 111 178 145 244 218 430 31 80 81 199 110
265 209 472 234 551 210 647 -5 19 0 41 14 72 35 72 46 252 32 549 -14 285
-30 398 -72 517 -17 47 -36 104 -42 127 -13 52 -3 66 76 108 190 102 366 298
429 479 51 148 -12 341 -163 501 -44 47 -87 101 -95 120 -9 23 -14 71 -14 142
0 71 -9 162 -26 266 -26 156 -27 161 -11 254 22 138 65 219 165 314 42 41 95
86 117 100 22 15 93 61 159 104 457 298 751 738 874 1310 84 386 100 629 67
1003 -25 281 -11 348 129 616 129 248 201 426 260 636 39 140 105 560 136 865
11 110 25 227 30 260 20 112 72 259 177 505 171 399 176 413 177 507 1 76 -1
84 -25 109 -36 35 -99 42 -154 16z m11 -436 c-14 -31 -27 -56 -30 -56 -2 0 7
27 21 60 15 33 28 58 30 56 2 -2 -7 -29 -21 -60z m-1486 -2646 c-6 -11 -13
-20 -16 -20 -2 0 0 9 6 20 6 11 13 20 16 20 2 0 0 -9 -6 -20z m597 -427 c-3
-10 -5 -4 -5 12 0 17 2 24 5 18 2 -7 2 -21 0 -30z m10 -75 c-2 -13 -4 -5 -4
17 -1 22 1 32 4 23 2 -10 2 -28 0 -40z m10 -60 c-3 -7 -5 -2 -5 12 0 14 2 19
5 13 2 -7 2 -19 0 -25z m-2607 -2931 c0 -2 -19 -21 -42 -42 l-43 -40 40 43
c36 39 45 47 45 39z m1047 -729 c-2 -35 -3 -9 -3 57 0 66 1 94 3 63 2 -32 2
-86 0 -120z m-1076 35 c13 -16 12 -17 -3 -4 -10 7 -18 15 -18 17 0 8 8 3 21
-13z m1066 -195 c-2 -18 -4 -4 -4 32 0 36 2 50 4 33 2 -18 2 -48 0 -65z
m-1734 -675 c-13 -2 -33 -2 -45 0 -13 2 -3 4 22 4 25 0 35 -2 23 -4z m1046
-133 c0 -9 -4 -8 -9 5 -5 11 -9 27 -9 35 0 9 4 8 9 -5 5 -11 9 -27 9 -35z m8
-42 c-3 -8 -6 -5 -6 6 -1 11 2 17 5 13 3 -3 4 -12 1 -19z m-1578 -148 l23 -35
-26 28 c-14 15 -26 33 -26 39 0 13 0 14 29 -32z m-645 -509 c-4 -23 -9 -40
-11 -37 -3 3 -2 23 2 46 4 23 9 39 11 37 3 -2 2 -23 -2 -46z m1298 9 c-24 -11
-57 -30 -75 -42 -17 -12 -27 -16 -23 -10 10 17 107 72 126 72 8 0 -4 -9 -28
-20z m1045 -332 c-3 -8 -6 -5 -6 6 -1 11 2 17 5 13 3 -3 4 -12 1 -19z m-10
-70 c-3 -8 -6 -5 -6 6 -1 11 2 17 5 13 3 -3 4 -12 1 -19z m-1218 -687 c10 -6
-1 -8 -30 -4 -24 3 -46 7 -48 9 -10 9 65 3 78 -5z m931 -146 c0 -73 -255 -643
-471 -1050 -112 -210 -165 -294 -296 -465 -80 -104 -97 -120 -189 -180 -177
-113 -197 -129 -218 -167 -27 -47 -43 -52 -57 -16 -8 21 -8 95 0 283 11 262
23 387 66 690 13 96 34 258 45 360 49 444 56 481 98 494 25 8 60 -4 189 -62
171 -79 187 -83 313 -89 191 -9 261 17 409 151 46 42 90 76 97 76 8 0 14 -10
14 -25z m-240 -59 c0 -8 -107 -66 -151 -81 -60 -22 -46 -12 57 39 101 50 94
47 94 42z m-460 -1960 c0 -2 -8 -10 -17 -17 -16 -13 -17 -12 -4 4 13 16 21 21
21 13z"/>
</g>
</svg>
