<?xml version="1.0" standalone="no"?>
<!DOCTYPE svg PUBLIC "-//W3C//DTD SVG 20010904//EN"
 "http://www.w3.org/TR/2001/REC-SVG-20010904/DTD/svg10.dtd">
<svg version="1.0" xmlns="http://www.w3.org/2000/svg"
 width="1280.000000pt" height="843.000000pt" viewBox="0 0 1280.000000 843.000000"
 preserveAspectRatio="xMidYMid meet">
<metadata>
Created by potrace 1.15, written by Peter Selinger 2001-2017
</metadata>
<g transform="translate(0.000000,843.000000) scale(0.100000,-0.100000)"
fill="#000000" stroke="none">
<path d="M4910 8405 c-29 -31 -17 -48 31 -43 30 3 34 6 34 33 0 40 -32 45 -65
10z"/>
<path d="M4621 8311 c-12 -12 -17 -27 -14 -40 7 -29 31 -26 39 4 3 14 12 25
20 25 19 0 18 16 -2 24 -22 8 -22 8 -43 -13z"/>
<path d="M4480 8118 c-14 -5 -51 -16 -83 -24 -67 -16 -122 -42 -167 -80 -47
-40 -52 -62 -34 -150 20 -96 12 -154 -26 -197 -24 -27 -30 -29 -44 -18 -9 8
-26 11 -42 7 -33 -9 -29 -41 10 -70 l28 -21 44 50 c63 71 87 125 80 178 -17
129 -19 180 -5 175 8 -2 15 -14 17 -26 4 -23 10 -26 36 -16 20 8 20 28 0 59
-21 32 -12 53 31 70 51 22 88 19 115 -10 31 -33 58 -32 66 3 4 15 15 37 26 48
17 19 17 22 3 28 -21 8 -24 7 -55 -6z"/>
<path d="M4937 8072 c-9 -13 19 -36 64 -55 47 -19 60 -57 68 -197 5 -83 9
-105 21 -105 22 0 32 75 25 182 -7 116 -14 136 -61 158 -45 21 -109 31 -117
17z"/>
<path d="M5455 8049 c-43 -38 -88 -112 -83 -136 3 -13 16 -2 52 44 60 76 88
88 177 73 35 -5 87 -10 116 -10 75 0 109 -33 180 -176 65 -131 66 -129 -31
-173 -71 -33 -142 -101 -132 -126 10 -26 37 -13 74 35 36 48 76 72 105 64 25
-8 77 47 77 81 0 32 -62 168 -113 248 -20 31 -49 63 -65 71 -34 17 -168 36
-259 36 -56 0 -66 -3 -98 -31z"/>
<path d="M4784 8059 c-3 -6 -1 -16 4 -21 13 -13 45 8 36 23 -7 12 -31 11 -40
-2z"/>
<path d="M4643 8019 c-27 -10 -30 -35 -5 -48 23 -12 52 4 52 28 0 23 -18 31
-47 20z"/>
<path d="M3957 7903 c-4 -3 -7 -16 -7 -29 0 -28 29 -40 49 -20 13 14 13 18 -4
36 -19 21 -28 24 -38 13z"/>
<path d="M4274 7745 c-8 -21 4 -35 30 -35 32 0 39 10 19 32 -19 22 -42 23 -49
3z"/>
<path d="M5740 7690 c0 -5 5 -10 10 -10 6 0 10 5 10 10 0 6 -4 10 -10 10 -5 0
-10 -4 -10 -10z"/>
<path d="M5170 7671 c0 -5 5 -13 10 -16 6 -3 10 -2 10 4 0 5 -4 13 -10 16 -5
3 -10 2 -10 -4z"/>
<path d="M3872 7648 c-33 -33 5 -76 53 -58 31 12 42 35 25 55 -15 18 -61 20
-78 3z"/>
<path d="M5210 7649 c0 -14 68 -41 94 -36 17 3 13 7 -24 25 -50 24 -70 27 -70
11z"/>
<path d="M6055 7543 c-36 -8 -75 -25 -75 -34 0 -4 39 -5 88 -2 123 7 127 3
127 -124 0 -77 -4 -103 -18 -123 -11 -16 -17 -43 -17 -83 0 -56 2 -62 38 -96
21 -20 57 -51 80 -69 72 -57 89 -106 101 -279 5 -68 13 -128 19 -135 5 -7 12
-70 13 -140 l4 -127 -33 -34 c-19 -19 -56 -47 -84 -62 -41 -22 -52 -25 -59
-14 -5 8 -8 21 -8 29 2 31 -1 40 -16 40 -20 0 -20 44 0 60 10 8 12 17 6 24 -5
6 -11 40 -13 76 -3 55 -10 73 -42 120 -25 37 -35 61 -31 75 3 11 8 50 12 86
l6 65 -64 23 c-35 13 -85 34 -111 47 -40 20 -48 29 -54 61 -7 42 -44 87 -89
110 -16 8 -40 25 -52 36 -30 27 -41 15 -17 -20 10 -15 24 -40 31 -55 8 -20 19
-28 37 -28 29 0 42 -16 27 -34 -7 -9 -6 -23 6 -49 14 -31 26 -40 85 -61 38
-14 87 -29 109 -32 22 -4 44 -14 48 -23 12 -22 -14 -117 -44 -162 -13 -20 -21
-40 -18 -43 4 -3 23 -6 43 -6 65 0 75 -16 74 -118 -1 -53 -7 -101 -15 -118
-13 -27 -19 -29 -77 -32 -50 -2 -62 0 -62 12 0 8 5 18 10 21 16 10 11 25 -8
25 -41 0 -57 -51 -22 -70 22 -12 26 -35 9 -45 -20 -13 -58 5 -78 38 -23 38
-19 68 26 170 19 41 23 61 15 69 -12 12 -25 -10 -71 -125 -36 -92 -37 -100
-12 -141 26 -42 34 -93 23 -144 -6 -24 -6 -44 -1 -48 40 -24 -47 -162 -146
-231 -41 -29 -27 -37 21 -12 91 48 184 178 184 258 0 41 7 55 33 64 9 3 17 15
17 26 0 24 19 28 172 35 120 5 158 19 221 81 63 61 96 152 67 181 -10 10 -18
69 -39 304 -15 170 -52 250 -146 320 -82 61 -107 123 -62 155 21 15 22 21 19
123 -2 118 -14 167 -42 182 -18 10 -106 12 -145 3z m64 -1302 c7 -5 10 -14 7
-20 -10 -16 -56 -14 -56 2 0 26 23 35 49 18z"/>
<path d="M4334 7495 c-19 -15 -19 -15 5 -35 13 -11 36 -20 52 -20 24 0 29 4
29 23 0 45 -47 62 -86 32z"/>
<path d="M6065 7440 c-8 -13 3 -30 21 -30 18 0 18 14 0 29 -10 8 -16 9 -21 1z"/>
<path d="M5247 7402 c-30 -33 -21 -45 25 -39 38 5 46 2 80 -29 41 -36 57 -41
87 -22 26 16 51 3 51 -26 0 -32 -26 -46 -87 -46 -55 0 -137 -33 -130 -52 5
-18 99 -11 113 8 6 8 18 14 27 14 23 0 65 -56 77 -103 6 -23 17 -57 25 -75
l15 -33 35 28 c41 33 44 43 11 43 -29 0 -38 11 -61 73 -20 54 -14 67 36 67 28
0 49 16 49 38 0 12 -3 12 -15 2 -22 -19 -40 -6 -53 38 -10 34 -19 43 -63 62
-38 16 -195 70 -205 70 0 0 -8 -8 -17 -18z"/>
<path d="M4178 7364 c-7 -16 -30 -37 -50 -46 -21 -10 -44 -31 -53 -48 -8 -16
-26 -46 -40 -66 -32 -47 -32 -71 0 -86 36 -16 31 -27 -22 -41 l-48 -12 65 -5
c53 -4 65 -8 68 -24 6 -30 -111 -133 -229 -203 -65 -38 -110 -72 -119 -89 -21
-38 -19 -159 3 -204 9 -19 51 -77 93 -129 l76 -95 -4 -72 c-4 -81 -26 -124
-69 -134 -23 -6 -24 -10 -24 -78 0 -89 11 -103 57 -69 51 38 133 60 225 61 45
1 85 4 88 8 4 4 -9 15 -29 24 -34 17 -41 17 -133 1 -54 -10 -110 -17 -124 -17
-36 0 -44 25 -15 47 47 38 60 71 60 157 0 95 -9 114 -89 206 -75 86 -97 131
-102 210 -5 63 -4 66 29 97 62 59 198 114 318 128 30 3 78 13 107 22 67 20
157 14 183 -13 18 -19 70 -159 70 -190 0 -8 7 -22 15 -30 8 -9 15 -24 15 -34
0 -11 13 -29 30 -41 16 -12 32 -35 35 -50 4 -15 16 -40 27 -54 22 -29 119 -97
127 -90 2 3 -21 31 -52 63 -36 38 -59 73 -66 99 -6 22 -18 46 -27 54 -21 17
-40 55 -70 141 -58 168 -50 155 -110 178 -68 25 -82 25 -179 0 -81 -21 -155
-26 -155 -11 0 4 17 28 38 52 22 24 45 55 52 69 11 21 11 25 -5 35 -41 23 -85
68 -85 86 0 11 29 50 64 88 73 78 93 108 78 123 -7 7 -15 0 -24 -18z"/>
<path d="M3717 7362 c-25 -28 -22 -60 7 -68 30 -7 59 -2 60 11 1 6 -9 11 -21
13 -23 3 -31 26 -13 37 6 3 10 10 10 16 0 15 -26 10 -43 -9z"/>
<path d="M6090 7326 c0 -9 5 -16 10 -16 6 0 10 4 10 9 0 6 -4 13 -10 16 -5 3
-10 -1 -10 -9z"/>
<path d="M5187 7230 c3 -11 9 -20 14 -20 11 0 11 3 3 24 -9 23 -23 20 -17 -4z"/>
<path d="M3305 7080 c-33 -4 -195 -8 -360 -9 -335 -2 -484 -12 -559 -38 -61
-21 -176 -23 -845 -9 -337 7 -442 6 -437 -2 5 -8 58 -12 174 -12 92 0 334 -7
537 -14 389 -15 536 -10 614 19 52 19 277 30 831 41 195 3 360 9 365 13 30 18
-199 26 -320 11z"/>
<path d="M4353 7073 c-31 -21 -29 -33 5 -33 41 0 59 15 43 34 -16 19 -20 19
-48 -1z"/>
<path d="M4469 7061 l-24 -19 25 -10 c38 -14 90 -24 90 -17 0 11 -23 50 -34
57 -18 12 -32 9 -57 -11z"/>
<path d="M590 7031 c-144 -13 -193 -22 -182 -33 7 -7 65 -6 179 2 120 8 181 9
213 1 56 -13 150 -14 169 -2 12 8 10 11 -10 15 -80 17 -270 25 -369 17z"/>
<path d="M5261 7001 c-20 -13 10 -26 92 -40 92 -16 118 0 52 32 -38 18 -121
23 -144 8z"/>
<path d="M3607 6907 c-18 -6 -27 -15 -25 -26 5 -23 101 -23 106 0 4 23 -45 39
-81 26z"/>
<path d="M4587 6743 c-12 -12 -7 -31 19 -71 19 -30 35 -41 59 -45 19 -3 47
-15 63 -27 37 -28 76 -24 80 8 6 37 -16 55 -60 49 -33 -4 -38 -2 -38 15 0 15
-5 18 -20 13 -17 -6 -20 -2 -20 29 0 35 -1 36 -38 36 -21 0 -42 -3 -45 -7z"/>
<path d="M3434 6566 c-8 -22 14 -56 37 -56 26 0 59 18 59 31 0 7 -12 8 -30 4
-26 -6 -30 -4 -30 14 0 24 -28 29 -36 7z"/>
<path d="M5822 6532 c-23 -18 -27 -60 -7 -74 17 -13 55 -9 61 7 6 16 -14 85
-24 85 -4 0 -17 -8 -30 -18z"/>
<path d="M6002 6523 c4 -21 54 -51 65 -39 8 8 -41 56 -58 56 -6 0 -9 -8 -7
-17z"/>
<path d="M6011 6446 c-8 -9 -11 -19 -7 -23 9 -9 29 13 24 27 -2 8 -8 7 -17 -4z"/>
<path d="M5075 6430 c4 -6 25 -20 48 -31 23 -12 54 -31 70 -42 20 -15 41 -21
72 -19 52 2 63 -10 40 -44 -9 -13 -13 -28 -11 -33 3 -5 30 -12 59 -15 51 -7
57 -11 111 -73 44 -50 56 -71 51 -87 -20 -69 -18 -85 14 -121 36 -41 35 -34
16 -105 -8 -30 -12 -56 -10 -58 8 -8 27 52 33 101 4 39 1 54 -17 77 -24 33
-26 53 -10 98 10 28 8 38 -16 77 -48 82 -80 112 -131 120 l-46 6 7 38 6 38
-60 6 c-38 3 -71 13 -90 26 -49 35 -151 66 -136 41z"/>
<path d="M3669 6414 c-11 -14 -10 -18 6 -30 22 -16 51 -18 60 -4 3 6 -1 13 -9
16 -9 3 -16 12 -16 20 0 19 -24 18 -41 -2z"/>
<path d="M5506 6405 c-9 -26 -7 -32 5 -12 6 10 9 21 6 23 -2 3 -7 -2 -11 -11z"/>
<path d="M3610 6245 l-23 -24 28 -11 c36 -14 59 -9 63 11 3 16 -22 49 -37 49
-4 0 -18 -11 -31 -25z"/>
<path d="M5070 6155 c-10 -12 -10 -15 3 -15 8 0 20 7 27 15 10 12 10 15 -3 15
-8 0 -20 -7 -27 -15z"/>
<path d="M5100 6114 c-11 -12 -10 -18 4 -32 16 -16 17 -16 23 6 5 22 7 22 24
6 11 -9 19 -23 19 -30 0 -16 66 -84 74 -76 8 7 8 72 0 111 -7 31 -24 43 -24
16 0 -19 -9 -19 -34 0 -26 20 -70 19 -86 -1z"/>
<path d="M5708 6049 c-22 -13 -23 -35 -2 -43 19 -7 86 23 92 42 5 15 -65 16
-90 1z"/>
<path d="M3602 6008 c-29 -29 8 -65 55 -53 24 6 24 7 9 24 -9 10 -16 23 -16
29 0 16 -33 15 -48 0z"/>
<path d="M5115 6010 c-3 -5 -2 -10 4 -10 5 0 13 5 16 10 3 6 2 10 -4 10 -5 0
-13 -4 -16 -10z"/>
<path d="M4685 5991 c-52 -13 -76 -31 -96 -74 -10 -23 -19 -49 -19 -57 0 -17
-54 -45 -69 -36 -23 14 -19 -15 3 -29 28 -19 46 -13 46 15 0 16 5 19 33 14 53
-9 57 -12 57 -44 0 -33 15 -38 46 -15 18 14 18 14 -5 15 -16 0 -21 4 -18 15 4
9 -5 21 -23 32 -17 9 -30 23 -30 30 0 51 112 -18 130 -80 19 -66 -25 -215 -91
-308 -24 -34 -21 -41 16 -41 33 0 62 26 70 63 4 16 10 29 15 29 12 0 70 -50
70 -60 0 -5 -20 -39 -45 -76 -25 -37 -43 -69 -40 -72 9 -9 85 71 106 110 25
49 25 52 -16 92 l-35 35 0 122 0 121 -65 67 c-36 37 -65 73 -65 80 0 21 45 30
184 37 136 7 136 7 136 -15 0 -35 19 -62 55 -77 40 -16 45 -17 45 -6 0 5 -11
14 -25 20 -14 6 -33 27 -42 46 -10 22 -27 39 -46 46 -33 11 -235 12 -282 1z"/>
<path d="M5723 5965 c-28 -20 -29 -35 -3 -35 28 0 71 22 67 34 -6 18 -40 18
-64 1z"/>
<path d="M5254 5926 c-10 -26 2 -44 35 -51 35 -7 35 -8 21 -36 -13 -24 -1 -25
40 -4 17 9 30 22 30 30 0 45 -111 99 -126 61z"/>
<path d="M3430 5920 c-8 -5 -25 -7 -38 -3 -20 5 -23 2 -20 -13 2 -10 10 -20
19 -22 25 -5 69 16 69 33 0 17 -9 19 -30 5z"/>
<path d="M4510 5881 c0 -5 5 -13 10 -16 6 -3 10 -2 10 4 0 5 -4 13 -10 16 -5
3 -10 2 -10 -4z"/>
<path d="M4336 5824 c-3 -9 -6 -26 -6 -40 0 -13 -14 -67 -30 -119 -35 -107
-34 -114 27 -163 l38 -30 -20 -37 c-26 -50 -88 -99 -156 -124 -33 -13 -71 -37
-94 -61 -21 -22 -45 -40 -51 -40 -27 0 -26 -24 1 -46 15 -12 24 -27 21 -33 -4
-6 -11 -9 -16 -6 -5 3 -20 0 -34 -6 -22 -11 -30 -8 -74 29 -51 43 -89 62 -123
62 -37 0 -19 -27 45 -69 67 -43 112 -88 127 -128 5 -13 13 -23 19 -23 17 0 11
-17 -16 -49 l-25 -30 26 -7 c15 -4 62 -4 104 -1 l76 6 52 55 c51 54 75 67 88
46 11 -18 67 -11 174 22 86 27 112 39 143 70 27 27 38 47 38 67 0 20 6 32 18
35 10 4 190 10 399 15 375 9 487 20 358 36 -58 8 -537 0 -755 -12 l-115 -6 19
22 c19 21 19 21 -8 21 -19 0 -29 -6 -33 -20 -6 -24 -51 -28 -60 -4 -9 24 14
64 37 64 55 0 90 61 90 158 0 72 -13 120 -45 163 -13 19 -29 44 -34 57 -6 12
-17 22 -24 22 -7 0 -45 27 -83 60 -73 63 -88 70 -98 44z m64 -83 c0 -6 -4 -13
-10 -16 -5 -3 -10 1 -10 9 0 9 5 16 10 16 6 0 10 -4 10 -9z m75 -51 c3 -5 -1
-10 -9 -10 -8 0 -18 5 -21 10 -3 6 1 10 9 10 8 0 18 -4 21 -10z m-69 -57 c21
-27 42 -52 47 -58 4 -5 29 -10 55 -10 39 0 48 -4 61 -26 9 -17 11 -33 6 -45
-8 -18 -9 -18 -12 4 -3 12 -9 22 -14 22 -15 0 -10 -50 6 -56 20 -8 20 -77 -1
-94 -8 -8 -28 -13 -45 -13 -26 0 -32 -7 -64 -73 -38 -78 -37 -78 -142 -90 -64
-7 -81 0 -40 16 21 8 21 9 -5 9 -16 1 -38 -10 -54 -24 -15 -14 -29 -25 -30
-25 -2 0 -21 9 -41 20 l-36 19 37 35 c20 20 54 40 75 46 50 13 124 63 167 113
49 58 45 93 -13 125 -32 18 -43 30 -43 48 0 29 29 104 40 104 5 0 26 -21 46
-47z m133 4 c6 -8 8 -17 4 -20 -7 -8 -33 11 -33 24 0 13 16 11 29 -4z m91
-468 c0 -41 -41 -68 -169 -110 -67 -21 -90 -25 -110 -17 -14 6 -58 14 -98 17
-72 6 -72 6 -54 -14 24 -25 15 -52 -29 -88 -49 -42 -138 -31 -110 13 6 8 10
35 10 60 1 66 15 80 70 70 51 -9 55 -8 55 27 0 39 25 49 85 34 41 -10 75 -11
173 -1 109 10 145 14 170 19 4 0 7 -4 7 -10z"/>
<path d="M4210 5100 c0 -5 7 -10 15 -10 8 0 15 5 15 10 0 6 -7 10 -15 10 -8 0
-15 -4 -15 -10z"/>
<path d="M5096 5833 c-3 -3 -6 -18 -6 -32 0 -14 -12 -53 -25 -86 -29 -70 -33
-101 -9 -70 29 36 64 119 64 152 0 31 -11 49 -24 36z"/>
<path d="M3505 5797 c-19 -14 -13 -37 9 -37 13 0 46 31 46 43 0 12 -35 8 -55
-6z"/>
<path d="M3695 5782 c-57 -31 -90 -75 -100 -133 -6 -32 -14 -45 -44 -64 -52
-32 -109 -101 -121 -145 -9 -33 -104 -155 -133 -171 -7 -4 -70 -9 -142 -11
-117 -3 -130 -1 -133 15 -2 11 3 17 13 17 21 0 14 24 -8 28 -20 4 -60 -35 -53
-53 3 -10 -7 -16 -37 -20 -118 -15 -317 -24 -532 -24 -247 1 -518 -19 -625
-45 -49 -12 -51 -14 -20 -14 19 -1 85 3 145 8 61 6 299 14 530 19 231 6 478
13 549 17 l129 7 -5 -24 c-3 -13 -9 -31 -12 -40 -14 -33 39 -61 73 -40 12 8
13 16 3 48 -8 26 -8 41 -1 48 5 5 50 10 99 10 71 0 93 -4 106 -17 16 -16 16
-18 0 -43 -15 -22 -22 -25 -51 -19 -42 7 -137 -33 -155 -66 -17 -32 -9 -32 39
1 36 24 55 29 101 29 65 0 83 13 105 77 15 41 22 43 82 18 22 -9 34 -23 39
-42 14 -59 44 -72 44 -19 0 81 -37 111 -169 137 l-64 12 39 33 c77 66 84 74
84 96 1 53 37 106 94 138 57 33 60 37 71 107 4 24 15 53 25 65 17 22 25 23
153 23 75 0 138 -3 142 -6 3 -4 10 -35 16 -70 6 -35 13 -75 16 -89 l5 -25 19
24 c25 31 24 51 -6 107 -14 26 -25 55 -25 65 0 16 -8 19 -55 19 -31 0 -78 9
-107 20 -65 25 -62 25 -123 -8z"/>
<path d="M5210 5790 c0 -5 5 -10 10 -10 6 0 10 5 10 10 0 6 -4 10 -10 10 -5 0
-10 -4 -10 -10z"/>
<path d="M5499 5754 c-9 -11 -25 -15 -51 -12 -44 4 -48 -3 -14 -22 31 -16 73
-6 81 21 9 27 1 34 -16 13z"/>
<path d="M3287 5719 c-26 -30 -29 -31 -46 -15 -9 9 -23 16 -29 16 -17 0 -15
-25 3 -40 28 -24 115 14 115 50 0 28 -11 25 -43 -11z"/>
<path d="M5240 5722 c0 -23 28 -62 44 -62 23 0 37 26 30 54 -5 22 -12 26 -40
26 -26 0 -34 -4 -34 -18z"/>
<path d="M3432 5687 c-27 -29 -29 -64 -3 -72 27 -8 98 22 84 36 -8 8 -17 7
-33 -1 -27 -15 -38 -5 -22 20 26 42 8 54 -26 17z"/>
<path d="M5377 5663 c-4 -3 -7 -19 -7 -34 0 -15 -9 -37 -19 -50 -16 -19 -23
-22 -38 -13 -9 6 -20 21 -23 34 -3 13 -15 27 -28 31 -20 8 -22 5 -22 -31 0
-28 -9 -50 -33 -82 -30 -39 -37 -43 -82 -46 -125 -6 -156 -32 -39 -32 70 0 84
5 149 55 24 17 61 35 83 39 63 10 105 69 86 120 -7 17 -16 20 -27 9z"/>
<path d="M5195 5640 c4 -6 11 -8 16 -5 14 9 11 15 -7 15 -8 0 -12 -5 -9 -10z"/>
<path d="M2974 5619 c-3 -6 0 -16 6 -24 18 -22 3 -36 -26 -25 -36 14 -54 12
-54 -5 0 -20 46 -37 81 -30 36 8 53 29 45 59 -6 24 -41 41 -52 25z"/>
<path d="M5140 5605 c0 -8 5 -15 10 -15 6 0 10 -4 10 -9 0 -5 -9 -7 -20 -4
-14 4 -20 0 -20 -11 0 -19 24 -21 69 -5 31 11 42 29 17 29 -7 0 -19 7 -26 15
-7 8 -19 15 -26 15 -8 0 -14 -7 -14 -15z"/>
<path d="M5066 5566 c7 -19 38 -22 32 -3 -3 6 -12 13 -21 15 -12 2 -15 -1 -11
-12z"/>
<path d="M5031 5552 c-14 -27 -14 -32 3 -32 21 0 29 17 18 37 -9 15 -11 14
-21 -5z"/>
<path d="M4730 5421 c0 -5 5 -13 10 -16 6 -3 10 -2 10 4 0 5 -4 13 -10 16 -5
3 -10 2 -10 -4z"/>
<path d="M4890 5410 c0 -5 6 -10 14 -10 8 0 18 5 21 10 3 6 -3 10 -14 10 -12
0 -21 -4 -21 -10z"/>
<path d="M4637 5363 c-10 -9 -9 -53 1 -53 5 0 19 11 31 24 19 21 20 24 6 30
-21 8 -30 8 -38 -1z"/>
<path d="M5564 5232 c12 -20 79 -32 181 -32 55 0 138 -7 185 -17 62 -12 144
-16 305 -17 121 -1 299 -5 395 -10 187 -9 503 1 440 15 -43 9 -625 29 -868 29
-112 0 -206 6 -257 15 -107 20 -391 32 -381 17z"/>
<path d="M7245 5180 c-4 -6 8 -10 29 -10 19 0 38 5 41 10 4 6 -8 10 -29 10
-19 0 -38 -4 -41 -10z"/>
<path d="M7405 5181 c56 -25 312 -35 1000 -36 391 -1 753 -5 806 -9 61 -5 99
-5 102 2 16 25 -484 44 -1058 41 -286 -1 -599 1 -695 4 -107 5 -167 4 -155 -2z"/>
<path d="M2934 5148 c-9 -14 23 -38 42 -31 19 7 18 23 -1 23 -8 0 -15 5 -15
10 0 14 -17 13 -26 -2z"/>
<path d="M3048 5012 c-46 -50 -56 -67 -55 -94 1 -23 -11 -50 -36 -88 -23 -34
-37 -66 -36 -85 0 -33 -3 -37 57 61 66 109 67 110 96 90 14 -9 33 -27 42 -41
14 -21 14 -30 4 -55 -11 -27 -10 -33 7 -53 29 -31 43 -62 43 -92 0 -18 6 -29
20 -32 23 -6 24 -7 9 -48 -11 -28 -9 -35 10 -54 11 -11 21 -25 21 -30 0 -14
58 -34 76 -27 16 6 15 8 -2 21 -17 13 -17 16 -4 25 17 13 421 5 585 -11 55 -6
142 -14 194 -19 68 -6 98 -12 106 -24 7 -9 17 -16 24 -16 6 0 11 -4 11 -10 0
-5 -13 -10 -30 -10 -28 0 -30 -2 -30 -40 0 -112 -79 -304 -130 -317 -11 -3
-20 -9 -20 -14 0 -4 -17 -11 -37 -15 -21 -3 -47 -14 -58 -24 -51 -44 -103 -52
-135 -20 -20 20 -20 20 -26 -5 -4 -17 -13 -25 -27 -25 -20 0 -20 -1 -5 -16 26
-26 139 -14 176 19 18 16 33 20 70 18 29 -1 28 -15 -4 -56 -23 -30 -70 -59
-128 -79 -18 -6 -18 -7 -1 -26 10 -11 15 -20 11 -20 -15 0 -237 80 -275 99
-43 22 -53 41 -23 41 26 1 52 25 52 49 0 16 6 21 28 21 l27 0 -30 24 c-16 13
-57 32 -90 41 -33 10 -71 21 -85 24 -21 6 -26 15 -29 52 -2 36 -10 49 -37 73
-19 16 -37 26 -41 23 -12 -12 19 -67 38 -67 25 0 24 -12 -5 -39 l-24 -22 -22
31 c-19 27 -25 54 -33 158 -6 70 -11 128 -12 129 -3 4 -124 -46 -177 -73 -60
-30 -73 -30 -53 0 24 36 37 186 19 207 -21 24 -92 45 -105 32 -8 -8 0 -17 31
-33 l43 -22 -5 -69 c-6 -79 -18 -99 -60 -99 -42 0 -68 17 -68 44 0 28 -32 59
-57 54 -30 -6 -27 -36 6 -64 28 -24 33 -44 11 -44 -5 0 -25 16 -44 35 -45 45
-91 49 -107 9 -5 -15 -7 -35 -4 -45 8 -23 52 -36 68 -20 6 6 15 11 19 11 12 0
-16 -52 -41 -74 -20 -18 -22 -18 -98 2 -138 36 -133 35 -133 9 0 -24 -30 -63
-66 -83 -27 -17 -14 -25 54 -33 33 -4 67 -13 76 -20 11 -9 20 -10 35 -2 13 8
28 8 46 1 14 -5 37 -10 51 -10 27 0 32 -15 8 -24 -28 -11 -108 -6 -167 9 -57
15 -157 60 -157 71 0 17 76 117 96 126 25 12 34 35 34 93 0 47 32 105 57 105
10 0 40 -11 67 -25 49 -25 120 -33 130 -16 8 12 -18 21 -59 21 -26 0 -39 7
-55 30 -62 87 -197 -26 -174 -147 l7 -36 -39 7 c-37 7 -69 18 -242 87 -68 27
-84 29 -203 29 -127 0 -131 -1 -222 -39 -50 -21 -112 -45 -137 -54 -112 -41
-314 -175 -361 -240 -37 -51 -162 -296 -196 -385 -23 -60 -26 -82 -27 -202 -1
-85 4 -152 12 -181 13 -44 12 -47 -12 -84 -35 -51 -35 -125 -1 -225 14 -40 25
-92 25 -114 1 -55 30 -116 97 -204 95 -124 205 -203 388 -278 l70 -29 225 1
c216 2 228 3 294 28 98 36 109 60 34 72 -76 13 -138 101 -138 195 l0 34 32
-55 c64 -113 116 -160 177 -160 34 0 71 30 71 58 0 10 15 26 34 36 19 10 40
31 46 46 7 16 20 36 31 46 10 9 19 30 19 46 0 17 5 28 14 28 8 0 23 16 35 35
17 30 24 34 39 26 42 -22 45 -38 12 -61 -37 -26 -38 -42 -2 -69 27 -20 27 -20
4 -21 -41 0 -82 -28 -82 -55 0 -17 -6 -25 -17 -25 -15 0 -13 -4 7 -20 l25 -19
-28 -10 c-16 -6 -51 -11 -78 -11 -36 0 -49 -4 -49 -15 0 -14 56 -35 98 -35 83
0 205 -115 228 -214 6 -25 16 -40 27 -42 33 -5 202 -165 268 -253 28 -39 60
-159 45 -169 -6 -4 -141 -6 -301 -4 -341 4 -378 -11 -67 -27 111 -6 206 -12
210 -14 4 -3 61 -1 127 4 78 5 134 5 159 -2 32 -9 46 -7 86 10 37 16 54 18 81
11 74 -20 336 -132 398 -169 80 -48 204 -91 264 -91 37 0 48 5 75 34 32 35 42
39 171 52 50 5 64 10 68 24 4 15 10 17 30 9 13 -5 70 -9 125 -9 l101 0 171
-112 c94 -62 235 -145 313 -185 209 -107 234 -99 98 33 -110 108 -177 158
-246 183 -69 26 -141 86 -120 100 46 30 213 17 244 -21 16 -20 18 -20 36 -4
21 19 25 15 35 -26 3 -15 19 -35 34 -45 15 -9 52 -42 82 -73 52 -55 59 -58
126 -70 60 -11 82 -10 152 4 45 9 124 19 175 23 l94 6 19 48 c10 27 20 49 23
49 2 0 22 -19 45 -41 48 -49 201 -147 462 -296 218 -124 273 -172 369 -322 6
-9 17 -21 26 -28 20 -15 64 -114 80 -178 6 -27 22 -81 35 -120 34 -102 72
-258 85 -350 19 -138 14 -128 66 -122 27 3 54 13 66 26 l21 21 -50 0 -50 0
-33 171 c-35 178 -89 365 -157 540 -23 59 -21 61 96 123 l91 48 42 -17 c50
-20 114 -13 150 16 14 10 31 19 39 19 16 0 245 -152 334 -222 57 -46 96 -59
109 -38 8 12 -77 78 -270 209 -172 117 -193 136 -220 194 -22 48 -108 143
-147 163 -37 19 -54 10 -98 -57 -37 -55 -85 -97 -192 -163 l-63 -39 39 44 c22
24 90 92 150 151 l111 107 67 1 c37 0 70 -5 73 -10 3 -6 17 -10 31 -10 26 0
97 -17 234 -56 47 -13 139 -28 206 -34 67 -5 175 -17 240 -26 66 -9 171 -16
234 -16 135 0 178 11 485 122 110 40 259 91 330 115 72 24 182 64 245 90 218
90 654 245 689 245 9 0 33 11 53 25 21 14 73 37 118 52 92 30 123 26 200 -26
l43 -29 76 39 c101 53 199 71 376 71 298 -1 584 -66 1090 -250 376 -137 510
-189 776 -303 210 -89 247 -100 272 -74 27 27 32 63 11 86 -31 34 -130 83
-309 154 -205 81 -605 276 -695 339 -100 70 -228 146 -427 253 -159 85 -205
116 -355 238 -95 77 -238 203 -318 280 -214 207 -262 226 -408 160 -83 -37
-106 -66 -127 -161 -29 -131 -24 -126 -126 -118 -109 8 -180 -7 -210 -44 -12
-16 -18 -34 -15 -48 11 -44 -2 -46 -412 -55 -382 -8 -474 -15 -582 -43 -30 -8
-77 -19 -105 -26 -74 -17 -263 -110 -365 -181 -108 -75 -156 -84 -255 -51 -99
34 -795 379 -795 395 0 15 110 179 194 289 28 37 98 128 154 202 100 131 105
136 140 136 21 0 133 5 249 10 172 9 240 8 355 -4 270 -28 403 -31 553 -10
126 16 151 17 313 4 97 -7 290 -15 427 -17 l250 -3 100 -50 c108 -53 287 -120
322 -120 30 0 34 11 21 54 -11 35 -52 80 -108 118 -25 17 -25 17 30 17 89 1
325 -18 475 -39 340 -46 923 -96 939 -80 7 7 6 10 -1 10 -6 0 -102 9 -214 20
-184 19 -368 39 -892 100 -93 11 -237 23 -320 26 l-152 7 -90 67 c-49 37 -147
114 -217 172 -69 59 -173 141 -230 184 -57 43 -152 119 -213 169 -60 50 -179
146 -263 214 -84 67 -210 178 -280 244 -235 225 -303 287 -317 287 -7 0 -15 7
-19 15 -3 9 -18 15 -40 15 -30 0 -43 -9 -108 -81 -40 -45 -102 -120 -138 -168
-62 -81 -72 -89 -182 -151 -121 -68 -188 -115 -188 -131 0 -24 63 -4 155 52
55 33 111 62 125 66 35 8 49 22 163 158 55 66 118 139 140 162 40 41 40 42 70
27 16 -9 106 -93 201 -188 172 -173 398 -363 841 -708 110 -86 236 -186 280
-223 44 -37 115 -91 158 -122 42 -30 77 -59 77 -64 0 -5 -27 -9 -59 -9 -46 0
-71 6 -112 28 -30 16 -128 68 -219 117 -309 163 -340 183 -420 265 -86 88
-105 100 -154 100 -45 0 -106 29 -171 79 -49 40 -65 43 -65 14 0 -24 -37 12
-62 60 -17 35 -21 37 -32 22 -11 -15 -14 -12 -31 24 -10 23 -20 41 -22 41 -3
0 -13 -10 -24 -22 l-19 -23 -6 22 c-8 29 -24 20 -24 -13 0 -38 -18 -28 -25 14
-14 85 -15 87 -32 70 -14 -14 -18 -14 -43 0 -36 21 -48 10 -26 -22 9 -14 25
-49 37 -78 11 -29 28 -61 36 -70 15 -17 14 -18 -20 -18 -32 0 -36 3 -42 33
-11 53 -57 147 -71 147 -19 0 -18 -14 5 -58 21 -43 34 -102 22 -102 -4 0 -16
18 -26 39 -18 41 -61 89 -70 79 -3 -3 -1 -17 5 -32 5 -15 10 -37 10 -49 -1
-21 -1 -22 -15 -3 -29 38 -28 -7 0 -78 7 -15 5 -17 -13 -11 -21 6 -22 3 -22
-49 0 -55 -15 -84 -26 -49 -10 34 -29 66 -41 71 -18 5 -16 -28 2 -65 14 -28
12 -63 -4 -63 -4 0 -35 38 -69 84 -81 110 -221 242 -301 284 -34 19 -64 32
-65 30 -1 -1 -9 -18 -16 -36 -22 -56 -153 -149 -446 -318 -30 -17 -73 -46 -97
-65 -92 -73 -315 -301 -423 -431 -119 -144 -132 -154 -226 -184 l-58 -18 -45
33 c-146 105 -275 175 -455 248 l-95 39 -3 82 -3 82 89 0 c177 0 279 37 370
134 134 144 183 349 132 552 -63 249 -142 293 -703 394 -464 83 -564 108 -695
174 -41 21 -66 26 -121 26 -128 0 -425 46 -586 90 -115 32 -261 43 -480 37
-339 -10 -450 -41 -558 -157 -72 -77 -116 -110 -147 -110 -17 0 -20 4 -15 18
24 56 6 116 -46 153 -24 17 -29 28 -29 61 0 33 -6 47 -37 77 -21 20 -48 43
-61 51 l-23 15 31 42 c50 68 29 71 -32 5z m1078 -202 c26 -10 26 -11 9 -30
-10 -11 -22 -20 -26 -20 -10 0 -49 41 -49 52 0 11 33 10 66 -2z m594 -85 c157
-26 290 -51 297 -57 6 -5 32 -50 58 -101 45 -90 62 -154 39 -150 -7 1 -155 23
-330 48 -176 26 -337 50 -359 55 -58 14 -65 12 -65 -12 -1 -21 -2 -21 -11 -5
-5 9 -23 24 -38 32 -19 9 -40 38 -65 89 -37 74 -61 105 -73 92 -4 -3 4 -17 17
-31 23 -24 23 -25 3 -25 -50 0 -63 57 -25 108 l17 22 25 -47 c14 -27 33 -59
43 -72 9 -13 17 -34 17 -46 0 -13 9 -33 19 -46 16 -20 20 -22 26 -8 8 21 -19
100 -61 176 -19 34 -34 63 -34 66 0 2 48 -6 108 -19 59 -12 235 -44 392 -69z
m-685 55 c3 -11 23 -45 44 -77 22 -32 42 -73 46 -92 l7 -34 -53 7 c-106 12
-377 26 -521 26 -164 0 -170 3 -122 60 67 79 242 126 486 129 98 1 107 -1 113
-19z m1108 -139 c30 -27 34 -28 44 -13 10 16 12 16 32 -2 26 -24 81 -135 81
-165 0 -25 -34 -41 -87 -41 -27 0 -36 5 -40 21 -4 12 -26 62 -50 111 -23 49
-43 96 -43 104 0 23 27 16 63 -15z m-929 -20 c19 -21 18 -52 -1 -58 -6 -2 -14
6 -18 19 -4 13 -9 31 -11 41 -7 23 9 22 30 -2z m1307 -76 c92 -19 279 -54 416
-79 136 -25 278 -54 314 -65 78 -25 163 -82 201 -136 43 -61 71 -181 72 -305
1 -93 -2 -112 -27 -170 -31 -72 -73 -137 -99 -154 -13 -8 -22 -5 -42 13 l-25
23 -39 -22 c-26 -15 -47 -20 -59 -15 -17 7 -17 7 0 18 43 27 50 34 42 46 -5 9
-24 11 -66 6 -55 -7 -59 -6 -59 14 0 32 -46 24 -93 -17 -16 -14 -16 -17 -2
-39 9 -13 13 -28 9 -34 -9 -16 -118 -6 -140 12 -16 13 -12 15 42 24 50 9 59
14 62 33 2 13 12 28 23 35 10 6 19 17 19 24 0 24 -21 24 -51 -1 -34 -29 -65
-35 -55 -11 4 11 -2 15 -22 15 -15 0 -34 -4 -42 -10 -11 -7 -9 -11 13 -19 41
-16 32 -24 -17 -17 -27 4 -47 3 -51 -4 -3 -5 -21 -10 -38 -10 -27 1 -29 2 -14
11 26 15 20 31 -10 27 -20 -2 -27 -8 -25 -21 4 -21 -25 -34 -41 -18 -17 17
-41 13 -55 -9 -15 -24 -32 -18 -32 11 0 21 -33 26 -60 10 -21 -14 -34 -1 -14
13 27 20 7 36 -46 36 -27 0 -51 4 -54 9 -3 4 -40 11 -81 14 -71 5 -105 18
-105 38 0 5 15 9 33 9 17 0 39 4 47 10 12 8 12 10 -3 16 -9 3 -31 4 -47 2 -31
-5 -39 9 -19 29 9 9 22 7 52 -8 22 -12 47 -19 57 -16 10 2 24 1 31 -4 11 -6
10 -9 -4 -15 -25 -9 -21 -21 11 -29 15 -3 35 -14 45 -22 14 -13 22 -14 44 -4
20 9 28 9 33 0 13 -20 23 9 16 46 -7 38 -61 85 -98 85 -28 0 -42 9 -51 33 -12
33 -35 30 -73 -10 -25 -25 -38 -34 -42 -25 -4 14 24 98 41 120 16 20 47 15 47
-8 0 -23 13 -26 27 -7 13 17 16 118 4 150 -6 15 -18 27 -27 27 -13 0 -15 -9
-12 -52 2 -44 0 -53 -14 -56 -16 -3 -18 5 -18 55 0 32 -5 65 -10 73 -5 8 -10
11 -11 5 -11 -87 -26 -140 -39 -136 -8 2 -32 4 -52 5 -21 0 -38 4 -38 9 0 12
48 27 67 20 10 -4 14 -2 10 4 -4 6 -20 13 -37 16 -38 8 -38 20 0 47 37 27 38
38 3 42 -16 2 -26 8 -23 13 3 6 9 8 15 6 26 -11 126 -2 152 14 28 16 37 16
184 -4 238 -33 237 -33 244 -21 8 14 -20 47 -57 66 -14 7 -101 27 -193 43
-197 35 -202 38 -234 146 -26 92 -26 97 2 90 12 -3 97 -21 188 -40z m-1482 6
c61 -11 107 -28 99 -37 -2 -2 -75 3 -162 11 -86 8 -237 17 -334 21 -300 11
-277 23 38 20 166 -2 323 -9 359 -15z m656 -111 c139 -18 474 -78 484 -87 3
-2 0 -8 -5 -13 -6 -6 -22 -6 -43 0 -32 9 -232 40 -531 81 -85 12 -164 25 -175
30 -38 15 117 9 270 -11z m-2664 -11 c17 -32 -4 -46 -30 -20 -12 12 -19 26
-16 31 10 17 34 11 46 -11z m129 -12 c0 -12 -4 -29 -9 -36 -8 -12 -11 -9 -16
12 -8 31 0 61 15 52 5 -3 10 -16 10 -28z m2155 23 c-3 -5 -10 -10 -16 -10 -5
0 -9 5 -9 10 0 6 7 10 16 10 8 0 12 -4 9 -10z m380 -64 c364 -55 468 -74 483
-90 13 -13 13 -21 -1 -68 -8 -29 -23 -87 -32 -129 -20 -89 -61 -170 -92 -184
-26 -11 -30 -25 -8 -25 24 0 17 -19 -10 -26 -27 -7 -33 -20 -12 -27 7 -2 -2
-12 -20 -23 -35 -20 -42 -34 -18 -34 23 0 18 -14 -18 -62 -33 -42 -35 -43 -88
-41 -126 4 -673 62 -751 79 -16 3 -28 12 -28 21 0 13 10 15 58 11 39 -4 70 -1
92 8 29 13 39 12 83 -2 31 -10 86 -17 143 -18 91 -1 92 -1 91 -25 -2 -27 11
-35 33 -21 12 8 13 13 3 30 -25 40 -17 50 40 50 47 -1 50 -2 29 -13 -30 -17
-18 -27 30 -27 36 0 39 2 33 21 -7 20 -5 21 31 13 95 -21 179 -3 211 45 35 52
31 64 -19 55 -68 -11 -73 -10 -76 14 -4 25 -36 42 -82 42 -16 0 -30 6 -33 13
-3 9 -10 7 -25 -7 -26 -22 -176 -35 -209 -18 -16 9 -24 8 -33 -3 -18 -21 -47
-19 -60 5 -13 23 -30 26 -30 5 0 -24 -28 -6 -38 25 -6 15 -20 31 -31 35 -23 7
-27 20 -11 30 17 10 11 25 -10 25 -25 0 -26 -27 -4 -59 14 -19 14 -25 3 -32
-8 -5 -22 -9 -31 -9 -21 0 -24 -16 -5 -23 19 -8 -13 -27 -47 -27 -23 0 -27 3
-21 18 4 9 10 26 13 37 2 11 10 27 17 35 7 8 17 35 23 60 6 25 24 77 40 115
l28 70 50 3 c60 4 85 22 30 22 -64 0 -76 12 -69 73 3 30 12 58 22 65 19 16 12
16 326 -32z m-2417 4 c1 -9 -4 -24 -12 -35 -15 -20 -15 -20 -37 2 -19 19 -20
24 -9 38 16 19 54 16 58 -5z m2024 -33 c-7 -18 -12 -56 -12 -83 0 -29 -7 -59
-16 -72 -17 -24 -22 -26 -42 -13 -15 9 -5 35 32 78 18 21 18 22 -15 39 -19 9
-37 22 -41 27 -11 17 2 28 23 22 28 -9 60 4 58 23 -3 30 1 36 13 24 9 -9 9
-19 0 -45z m-2502 23 c0 -5 -4 -10 -10 -10 -5 0 -10 5 -10 10 0 6 5 10 10 10
6 0 10 -4 10 -10z m550 -10 c0 -15 -31 -60 -41 -60 -14 0 -11 23 7 48 16 23
34 29 34 12z m900 1 c0 -16 -25 -29 -98 -49 -94 -27 -92 -7 4 30 74 29 94 33
94 19z m-810 -28 c0 -3 -14 -28 -31 -55 -23 -36 -34 -46 -40 -36 -24 37 6 98
47 98 13 0 24 -3 24 -7z m3113 -12 c64 -10 120 -21 124 -25 18 -17 -227 8
-263 28 l-29 15 25 0 c14 1 78 -8 143 -18z m-3353 -7 c41 -17 53 -34 23 -34
-20 0 -103 36 -103 45 0 10 40 5 80 -11z m670 -29 c-17 -20 -70 -49 -70 -37 0
4 14 23 31 41 22 24 33 31 41 23 8 -8 7 -16 -2 -27z m100 25 c0 -5 -4 -10 -10
-10 -5 0 -10 5 -10 10 0 6 5 10 10 10 6 0 10 -4 10 -10z m283 -56 c7 -65 66
-177 136 -261 34 -39 61 -74 61 -77 0 -12 -147 -6 -163 7 -11 8 -25 54 -41
132 -14 66 -32 141 -40 167 -13 42 -13 49 0 63 27 27 41 17 47 -31z m-617 2
c18 -14 18 -16 3 -31 -18 -18 -73 -14 -85 6 -21 34 43 53 82 25z m398 -22 c28
-27 20 -44 -21 -44 -77 0 -172 13 -167 22 22 35 159 51 188 22z m125 -48 c19
-61 51 -213 51 -241 0 -7 -13 -15 -29 -18 -16 -4 -45 -20 -65 -38 l-36 -31 0
61 c0 40 6 70 16 87 14 20 16 44 12 134 -5 102 -4 110 13 110 14 0 23 -16 38
-64z m-419 29 c0 -8 -7 -15 -15 -15 -16 0 -20 12 -8 23 11 12 23 8 23 -8z
m-474 -61 c-7 -25 -52 -61 -63 -50 -4 3 4 18 18 32 13 14 22 28 20 31 -2 3 2
14 10 25 12 17 14 17 17 3 2 -9 1 -27 -2 -41z m103 17 c32 -30 38 -46 22 -56
-5 -3 -12 -36 -16 -73 -11 -104 -32 -178 -85 -287 -86 -177 -305 -522 -367
-578 -24 -21 -53 -13 -53 14 0 17 124 236 141 249 4 3 18 28 31 55 13 28 36
70 50 95 37 63 105 234 174 437 33 95 62 173 65 173 4 0 21 -13 38 -29z m-191
2 c5 -18 -23 -16 -39 3 -11 14 -10 15 11 12 13 -1 25 -9 28 -15z m2017 7 c-3
-5 -1 -19 5 -29 9 -17 6 -23 -21 -37 -23 -11 -28 -19 -20 -27 8 -8 6 -16 -6
-29 -17 -19 -53 -25 -53 -8 0 12 35 82 58 118 13 21 50 33 37 12z m-2795 -30
c0 -5 -4 -10 -10 -10 -5 0 -10 5 -10 10 0 6 5 10 10 10 6 0 10 -4 10 -10z
m230 -49 c0 -6 -4 -13 -10 -16 -5 -3 -10 1 -10 9 0 9 5 16 10 16 6 0 10 -4 10
-9z m1393 -17 c20 -10 37 -24 37 -31 0 -18 -14 -16 -62 8 -35 18 -51 20 -105
14 -64 -7 -81 3 -45 25 24 15 130 6 175 -16z m377 -1 c14 -10 43 -18 64 -18
35 0 40 -3 48 -30 6 -23 4 -33 -9 -42 -18 -14 -6 -17 21 -7 11 4 13 14 9 35
-5 26 -3 29 20 29 39 0 41 -15 6 -54 -46 -53 -100 -44 -103 16 -1 14 -11 24
-31 31 -32 10 -65 35 -65 49 0 13 13 10 40 -9z m-1698 -25 c-9 -9 -12 -7 -12
12 0 19 3 21 12 12 9 -9 9 -15 0 -24z m95 7 c-8 -19 -47 -20 -47 -1 0 8 10 16
23 18 28 5 31 3 24 -17z m283 11 c0 -16 -18 -31 -27 -22 -8 8 5 36 17 36 5 0
10 -6 10 -14z m524 4 c32 -12 32 -21 2 -56 l-23 -28 -21 41 c-27 53 -15 65 42
43z m166 -15 c7 -9 10 -18 7 -22 -8 -8 -67 17 -67 28 0 15 47 10 60 -6z m1450
-5 c0 -5 -2 -10 -4 -10 -3 0 -8 5 -11 10 -3 6 -1 10 4 10 6 0 11 -4 11 -10z
m-2880 -7 c0 -10 -32 -43 -42 -43 -12 0 -10 24 4 38 13 13 38 16 38 5z m85
-12 c-3 -6 -11 -11 -17 -11 -6 0 -6 6 2 15 14 17 26 13 15 -4z m3865 0 c0 -56
-46 -105 -75 -81 -29 24 -37 4 -11 -27 61 -72 -4 -156 -72 -92 -29 27 -20 39
29 39 24 0 38 4 34 10 -3 6 -15 10 -26 10 -29 0 -34 26 -14 71 17 37 26 43 80
51 11 2 21 9 21 16 2 21 4 22 19 22 8 0 15 -9 15 -19z m-3090 0 c0 -12 -45
-22 -64 -15 -9 3 -13 10 -10 15 7 12 74 12 74 0z m2000 -8 c-1 -40 -14 -52
-59 -55 -41 -3 -46 -5 -43 -25 3 -22 1 -23 -70 -38 -25 -5 -22 5 13 48 18 22
39 37 52 37 12 0 38 8 57 19 40 21 50 24 50 14z m-1191 -29 c58 -48 31 -59
-49 -19 -65 33 -71 45 -21 45 28 0 48 -8 70 -26z m-259 -4 c26 -16 3 -21 -31
-6 -31 13 -32 14 -9 15 14 0 32 -3 40 -9z m-1160 -14 c0 -9 -30 -14 -35 -6 -4
6 3 10 14 10 12 0 21 -2 21 -4z m410 -37 c0 -14 7 -19 28 -19 28 0 52 -15 52
-33 0 -5 -11 -7 -25 -5 -18 4 -29 -1 -40 -18 -11 -18 -25 -24 -50 -24 -19 0
-35 5 -35 10 0 6 9 10 19 10 27 0 51 10 51 22 0 11 -91 5 -110 -7 -6 -4 -1
-15 12 -25 24 -20 18 -24 -29 -20 -29 2 -65 -18 -57 -32 4 -6 27 -8 63 -5 53
6 55 6 34 -10 -13 -8 -23 -24 -23 -34 0 -23 -23 -25 -40 -4 -13 16 -38 19 -64
9 -25 -10 -19 -21 14 -27 35 -8 39 -23 8 -30 -13 -2 -31 -8 -40 -12 -16 -6
-18 -1 -18 43 0 36 4 52 15 56 9 3 21 19 26 36 6 16 16 30 22 30 6 0 20 9 32
20 12 11 32 23 45 25 12 2 30 11 40 20 9 8 24 15 33 15 10 0 17 8 17 21 0 11
5 17 10 14 6 -3 10 -15 10 -26z m-710 1 c0 -12 -12 -26 -30 -35 -27 -14 -30
-14 -30 0 0 17 35 55 50 55 6 0 10 -9 10 -20z m1644 -5 c72 -25 117 -55 84
-55 -9 0 -19 4 -22 9 -5 8 -28 15 -133 41 -46 11 -58 30 -20 30 12 0 53 -11
91 -25z m-794 -9 c0 -14 -29 -31 -38 -21 -6 6 18 35 29 35 5 0 9 -6 9 -14z
m610 -6 c0 -12 -9 -39 -21 -62 l-21 -41 -24 29 c-27 33 -39 68 -29 83 3 6 26
11 51 11 38 0 44 -3 44 -20z m5191 -26 c55 -40 61 -54 24 -54 -18 0 -29 8 -37
26 -10 22 -17 25 -50 22 -43 -4 -45 -2 -21 24 22 25 28 23 84 -18z m-5770 -29
c-10 -16 -16 -37 -13 -45 5 -13 3 -13 -12 -1 -20 17 -15 55 12 84 25 27 35 -1
13 -38z m419 32 c0 -7 12 -23 25 -36 28 -26 24 -52 -4 -27 -10 9 -25 16 -34
16 -20 0 -31 16 -17 25 5 3 10 15 10 26 0 11 5 17 10 14 6 -3 10 -12 10 -18z
m351 -33 c52 -17 84 -46 76 -68 -5 -13 -11 -14 -44 -2 -50 18 -183 85 -183 92
0 9 99 -6 151 -22z m5759 17 c0 -5 3 -17 7 -27 4 -11 3 -15 -4 -11 -14 9 -24
47 -12 47 5 0 9 -4 9 -9z m-7180 -8 c0 -5 -5 -15 -10 -23 -8 -12 -10 -11 -10
8 0 12 5 22 10 22 6 0 10 -3 10 -7z m1751 -39 c29 -27 39 -30 39 -10 0 23 80
34 125 17 18 -7 17 -10 -14 -26 -96 -49 -152 -133 -205 -305 -34 -110 -39
-118 -61 -100 -15 12 -65 101 -65 115 0 2 10 4 21 2 12 -1 24 4 26 10 6 18
-51 73 -76 73 -11 0 -25 9 -31 19 -8 17 -6 22 17 33 34 16 42 38 14 38 -23 0
-24 3 -15 49 4 20 12 31 24 31 9 0 22 11 28 25 15 32 87 67 122 59 14 -3 36
-16 51 -30z m807 30 c37 -10 25 -24 -22 -24 -50 0 -61 -9 -42 -35 10 -14 16
-16 34 -6 18 9 22 9 22 -2 0 -29 -41 -52 -91 -52 -73 0 -79 14 -33 74 33 45
43 51 74 51 19 0 45 -3 58 -6z m139 -10 c3 -8 1 -20 -5 -26 -15 -15 -43 8 -35
28 7 19 32 18 40 -2z m183 -2 c0 -14 -23 -32 -41 -32 -28 0 -33 19 -7 29 29
12 48 13 48 3z m-3150 -22 c0 -15 -47 -42 -67 -38 -16 3 -16 5 5 26 22 22 62
30 62 12z m6594 1 c8 -13 -19 -21 -67 -21 -39 1 -41 2 -23 15 22 16 82 20 90
6z m-4955 -46 c92 -46 116 -65 83 -65 -26 0 -212 88 -212 100 0 20 43 9 129
-35z m1901 35 c0 -5 -2 -10 -4 -10 -3 0 -8 5 -11 10 -3 6 -1 10 4 10 6 0 11
-4 11 -10z m-2665 -10 c3 -5 1 -10 -4 -10 -6 0 -11 5 -11 10 0 6 2 10 4 10 3
0 8 -4 11 -10z m5946 -42 c69 -71 88 -100 70 -106 -7 -2 -52 -40 -100 -83 -81
-74 -111 -93 -111 -69 0 6 6 10 13 10 6 1 1 7 -13 15 -24 13 -24 14 -5 20 47
15 71 33 80 62 6 17 19 41 29 52 18 20 17 20 -15 40 -19 12 -41 21 -49 21 -21
0 -40 -20 -40 -42 0 -10 -4 -18 -9 -18 -21 0 -22 23 -5 56 17 31 22 34 66 34
48 0 67 16 26 22 -30 4 -37 38 -9 38 13 0 43 -22 72 -52z m-6743 30 c-6 -18
-28 -21 -28 -4 0 9 7 16 16 16 9 0 14 -5 12 -12z m642 -9 c0 -6 -4 -7 -10 -4
-5 3 -10 11 -10 16 0 6 5 7 10 4 6 -3 10 -11 10 -16z m109 4 c17 -10 31 -21
31 -25 0 -11 -28 -10 -34 1 -3 4 -16 6 -30 4 -27 -6 -69 13 -61 28 10 15 61
10 94 -8z m6354 -36 c-15 -33 -73 -75 -73 -53 0 8 9 20 19 25 10 6 24 25 30
43 9 24 14 29 23 20 8 -8 9 -18 1 -35z m-5748 23 c3 -5 2 -10 -4 -10 -5 0 -13
5 -16 10 -3 6 -2 10 4 10 5 0 13 -4 16 -10z m2465 -73 c-27 -71 -42 -83 -117
-91 -77 -8 -81 2 -25 67 20 24 46 57 58 72 15 21 25 27 38 22 15 -6 17 -14 13
-43 -4 -25 -2 -34 6 -31 7 2 13 12 15 23 9 59 13 69 23 52 6 -11 3 -34 -11
-71z m2600 74 c0 -5 -27 -15 -60 -24 -62 -15 -71 -5 -16 19 36 15 76 18 76 5z
m-6280 -28 c0 -20 -24 -11 -28 10 -2 12 1 15 12 11 9 -3 16 -13 16 -21z m3800
18 c0 -11 -29 -35 -35 -29 -10 9 7 38 21 38 8 0 14 -4 14 -9z m-2450 -37 c77
-36 140 -77 140 -91 0 -26 -74 -13 -150 25 -63 31 -75 41 -78 65 -4 35 15 35
88 1z m645 16 c-3 -5 -13 -10 -21 -10 -8 0 -12 5 -9 10 3 6 13 10 21 10 8 0
12 -4 9 -10z m-2179 -37 c-11 -11 -17 4 -9 23 7 18 8 18 11 1 2 -10 1 -21 -2
-24z m-92 -24 c-20 -22 -59 -22 -59 1 0 8 16 23 35 33 31 15 35 15 38 1 2 -8
-4 -24 -14 -35z m6416 42 c0 -5 -7 -11 -15 -15 -15 -5 -20 5 -8 17 9 10 23 9
23 -2z m1129 -31 c74 -23 175 -57 225 -76 139 -53 836 -417 843 -440 6 -18
-101 -23 -227 -12 -63 6 -335 12 -605 13 -269 2 -553 8 -630 14 -100 8 -192 9
-320 1 -228 -12 -255 -12 -255 0 0 12 67 86 267 293 l133 138 31 -35 c22 -26
39 -36 61 -36 37 0 55 10 148 80 84 64 145 99 175 100 11 0 80 -18 154 -40z
m-6639 4 c0 -17 -31 -34 -64 -34 -40 0 -39 17 1 37 41 20 63 19 63 -3z m3254
20 c24 -9 19 -22 -11 -26 -14 -2 -28 -8 -30 -14 -4 -12 68 -41 132 -53 22 -4
49 -12 61 -19 33 -18 201 -45 309 -50 55 -2 155 2 223 8 129 13 163 9 93 -10
-49 -13 -45 -30 7 -30 20 0 54 -5 76 -11 117 -32 -130 -52 -314 -25 -58 9
-179 31 -270 50 -91 19 -232 44 -315 56 -82 12 -151 23 -154 25 -2 2 7 18 19
34 15 22 32 33 60 37 22 4 45 13 51 20 12 15 37 18 63 8z m156 -4 c0 -5 -5
-10 -11 -10 -5 0 -7 5 -4 10 3 6 8 10 11 10 2 0 4 -4 4 -10z m-3585 -22 c25
-11 34 -28 14 -28 -17 0 -49 20 -49 30 0 13 4 12 35 -2z m-645 -34 c0 -14 -12
-19 -23 -8 -9 9 4 35 14 28 5 -3 9 -12 9 -20z m2720 11 c37 -19 38 -25 3 -25
-35 0 -58 14 -49 29 9 14 11 14 46 -4z m1420 -5 c0 -5 -4 -10 -10 -10 -5 0
-10 5 -10 10 0 6 5 10 10 10 6 0 10 -4 10 -10z m-1055 -9 c34 -7 45 -44 23
-73 -12 -15 -21 -12 -106 33 l-92 49 72 -1 c40 -1 87 -4 103 -8z m1105 -1 c0
-5 -4 -10 -10 -10 -5 0 -10 5 -10 10 0 6 5 10 10 10 6 0 10 -4 10 -10z m2050
1 c0 -5 -18 -13 -41 -19 -40 -10 -40 -10 -23 9 17 19 64 27 64 10z m308 -2
c-2 -6 -8 -10 -13 -10 -5 0 -11 4 -13 10 -2 6 4 11 13 11 9 0 15 -5 13 -11z
m-5048 -25 c103 -48 149 -101 103 -118 -25 -10 -116 39 -157 84 -60 66 -41 78
54 34z m547 -49 c-5 -16 -14 -38 -19 -49 -7 -13 -6 -21 4 -28 10 -6 7 -14 -15
-33 -39 -35 -46 -31 -36 18 15 67 30 107 40 107 5 0 9 11 9 23 0 13 3 27 7 31
13 13 20 -37 10 -69z m-1739 53 c7 -7 12 -15 12 -18 0 -4 -115 -5 -139 -1 -2
1 2 8 9 16 15 18 101 20 118 3z m100 -10 c3 -13 -3 -18 -22 -18 -20 0 -26 5
-26 21 0 15 5 20 22 17 13 -2 24 -11 26 -20z m92 12 c8 -5 12 -12 9 -15 -8 -8
-39 5 -39 16 0 11 11 11 30 -1z m259 -75 c-28 -57 -51 -77 -84 -77 -42 0 -55
20 -26 40 14 10 47 41 75 70 44 47 51 51 54 33 2 -12 -7 -41 -19 -66z m2491
77 c0 -4 -20 -30 -45 -57 l-44 -50 -1 46 c0 25 5 50 12 57 13 13 78 17 78 4z
m3440 -1 c0 -11 -31 -24 -39 -16 -3 3 1 10 9 15 19 12 30 12 30 1z m-3778 -31
c144 -47 155 -62 44 -64 -66 -1 -91 8 -66 24 12 7 12 12 2 22 -10 10 -17 10
-32 0 -16 -10 -26 -9 -55 5 -19 9 -35 23 -35 30 0 20 42 16 142 -17z m3703 20
c17 -27 -51 -79 -95 -72 -65 10 -67 13 -16 33 28 10 57 25 65 34 17 17 37 20
46 5z m-3241 -42 c20 -23 36 -46 36 -51 0 -5 -17 -7 -39 -4 -26 3 -47 0 -61
-10 -20 -14 -50 -12 -50 4 0 4 17 19 37 33 l37 25 -34 5 c-32 5 -33 6 -16 23
27 27 52 20 90 -25z m1181 28 l30 -14 -28 -11 c-16 -6 -35 -11 -43 -11 -24 0
-54 19 -54 35 0 19 53 19 95 1z m1960 4 c3 -5 1 -10 -4 -10 -6 0 -11 5 -11 10
0 6 2 10 4 10 3 0 8 -4 11 -10z m-6597 -22 c3 -17 -26 -41 -65 -53 -32 -9 -30
12 4 47 29 31 56 33 61 6z m5157 2 c18 -19 17 -20 -3 -20 -12 0 -32 -15 -48
-36 -26 -33 -29 -35 -41 -18 -21 29 -15 58 15 76 36 23 55 22 77 -2z m-425
-11 c0 -5 -4 -9 -10 -9 -5 0 -10 7 -10 16 0 8 5 12 10 9 6 -3 10 -10 10 -16z
m-4515 1 c3 -5 -1 -10 -9 -10 -8 0 -18 5 -21 10 -3 6 1 10 9 10 8 0 18 -4 21
-10z m1185 1 c0 -6 -5 -13 -10 -16 -15 -9 -43 3 -35 15 8 13 45 13 45 1z m117
-35 c27 -24 71 -57 98 -73 65 -38 72 -58 16 -49 -56 9 -134 49 -160 82 -21 27
-29 84 -12 84 5 0 31 -20 58 -44z m4963 34 c0 -5 -13 -16 -29 -24 -25 -13 -31
-13 -47 -1 -18 13 -17 14 13 15 17 0 35 5 38 10 8 13 25 13 25 0z m-4605 -10
c3 -5 1 -10 -4 -10 -6 0 -11 5 -11 10 0 6 2 10 4 10 3 0 8 -4 11 -10z m475
-26 c20 -59 -20 -75 -54 -21 -8 12 -5 21 8 36 26 29 33 27 46 -15z m3820 22
c0 -8 -4 -17 -9 -20 -10 -7 -23 19 -14 28 11 11 23 6 23 -8z m-5463 -2 c-3 -3
-12 -4 -19 -1 -8 3 -5 6 6 6 11 1 17 -2 13 -5z m1118 -54 c29 -58 30 -60 9
-60 -16 0 -44 56 -44 90 0 31 7 25 35 -30z m695 9 c0 -11 -4 -17 -10 -14 -5 3
-10 15 -10 26 0 11 5 17 10 14 6 -3 10 -15 10 -26z m1630 16 l65 -13 -76 -1
c-86 -1 -141 7 -133 20 7 13 68 10 144 -6z m2154 -26 c-3 -5 -10 -7 -15 -3 -5
3 -7 10 -3 15 3 5 10 7 15 3 5 -3 7 -10 3 -15z m-5717 -16 c4 -12 -61 -28
-152 -37 -71 -7 -58 1 50 30 86 23 97 23 102 7z m858 -16 c18 -19 63 -51 99
-73 70 -41 84 -64 39 -64 -61 0 -193 103 -193 150 0 29 19 24 55 -13z m1445
23 c0 -5 -7 -10 -15 -10 -8 0 -15 5 -15 10 0 6 7 10 15 10 8 0 15 -4 15 -10z
m363 -17 c30 -16 30 -18 10 -21 -13 -2 -23 -8 -23 -13 0 -17 -39 -9 -50 11 -8
16 -21 20 -58 20 -46 1 -47 1 -22 16 30 18 96 12 143 -13z m3413 -9 c30 -13
54 -28 54 -32 0 -5 -42 -49 -92 -99 -51 -49 -106 -106 -121 -126 -24 -32 -34
-37 -68 -37 l-41 0 49 38 c73 59 79 68 58 92 -15 16 -15 22 -5 35 16 19 29 19
49 1 14 -12 21 -12 49 -1 32 14 44 35 18 35 -7 0 -20 7 -27 16 -10 12 -26 15
-72 12 -53 -4 -58 -3 -54 14 7 24 -18 24 -86 -2 -46 -17 -59 -19 -83 -8 l-29
12 28 4 c23 3 26 6 17 18 -17 19 28 36 107 40 35 1 67 5 73 9 5 3 10 -3 10
-15 0 -23 39 -43 103 -53 35 -5 38 -4 35 16 -2 16 -9 21 -25 20 -49 -5 -97 30
-55 40 22 6 42 0 108 -29z m-6596 4 c0 -18 -2 -20 -9 -8 -6 8 -7 18 -5 22 9
14 14 9 14 -14z m2385 12 c3 -5 -1 -10 -9 -10 -9 0 -16 5 -16 10 0 6 4 10 9
10 6 0 13 -4 16 -10z m325 2 c0 -9 -44 -32 -61 -32 -6 0 -6 7 1 20 10 19 60
29 60 12z m790 -38 c25 -26 37 -44 27 -40 -10 3 -22 6 -27 6 -15 0 -70 51 -70
66 0 26 26 14 70 -32z m-3586 27 c3 -4 -6 -19 -19 -31 -18 -17 -28 -21 -36
-13 -8 8 -5 17 10 32 22 22 37 26 45 12z m1790 -53 c20 -35 44 -73 52 -85 9
-13 12 -23 6 -23 -12 0 -73 72 -91 107 -11 21 -15 63 -7 63 2 0 20 -28 40 -62z
m4472 41 c3 -6 -1 -18 -10 -27 -16 -16 -18 -16 -31 2 -8 10 -12 23 -9 27 7 13
42 11 50 -2z m-5956 -3 c0 -2 -7 -7 -16 -10 -8 -3 -12 -2 -9 4 6 10 25 14 25
6z m3132 -36 c23 -11 47 -20 53 -20 22 0 171 -78 192 -101 29 -32 63 -107 63
-141 0 -18 5 -28 15 -28 22 0 107 -45 126 -66 30 -34 71 -126 61 -136 -6 -6
-16 -3 -28 10 -11 11 -29 23 -41 26 -13 4 -23 14 -23 22 0 8 -11 19 -24 24
-13 5 -27 14 -31 20 -4 7 -18 9 -31 6 -17 -5 -24 -2 -24 9 0 8 -15 21 -32 29
-31 14 -32 15 -10 21 36 12 25 34 -28 59 l-49 23 25 22 c20 18 23 25 14 36 -9
11 -17 12 -31 5 -15 -9 -27 -2 -68 41 -38 40 -54 49 -70 44 -32 -10 -112 6
-129 26 -11 13 -20 15 -33 9 -19 -11 -77 -3 -96 13 -23 18 -13 25 26 20 23 -3
41 -1 45 6 11 17 46 13 46 -4 0 -13 4 -14 20 -5 11 6 20 15 20 20 0 6 -9 10
-20 10 -11 0 -20 5 -20 10 0 16 38 12 82 -10z m-3337 -1 c10 -15 -1 -23 -20
-15 -9 3 -13 10 -10 16 8 13 22 13 30 -1z m649 5 c20 -8 20 -28 0 -59 -20 -31
-36 -31 -153 3 -145 42 -132 56 56 60 45 1 88 -1 97 -4z m686 -50 c30 -30 74
-67 98 -81 79 -47 25 -72 -59 -27 -69 38 -109 85 -109 129 0 19 4 35 8 35 4 0
32 -25 62 -56z m2705 30 c40 -19 175 -159 175 -181 0 -10 -6 -13 -16 -9 -29
11 -232 56 -253 56 -11 0 -45 -11 -76 -25 -46 -20 -60 -22 -80 -13 -19 8 -25
18 -23 37 2 19 -3 29 -19 36 -27 11 -28 18 -8 35 14 12 21 40 9 40 -3 0 -26
-12 -52 -27 l-46 -27 22 35 c26 43 19 56 -16 29 -32 -26 -46 -25 -32 1 19 35
48 39 218 35 123 -4 171 -9 197 -22z m-2825 0 c0 -8 -4 -12 -10 -9 -5 3 -10
10 -10 16 0 5 5 9 10 9 6 0 10 -7 10 -16z m576 -1 c19 -19 55 -95 48 -102 -6
-6 -44 30 -44 43 0 6 -9 22 -20 36 -31 40 -19 58 16 23z m558 -4 c31 -25 33
-45 5 -54 -15 -5 -18 -10 -10 -18 8 -8 14 -8 23 1 7 7 20 12 30 12 9 0 22 8
27 18 10 15 10 15 11 -3 0 -12 -6 -27 -12 -34 -11 -10 -9 -15 6 -27 18 -13 17
-14 -21 -14 -25 0 -50 7 -66 20 -14 11 -36 20 -49 20 -36 0 -41 11 -16 37 21
23 22 25 5 34 -9 6 -17 14 -17 19 0 18 57 10 84 -11z m3736 11 c0 -11 -33 -30
-52 -30 -7 0 -2 9 12 20 28 22 40 25 40 10z m-3051 -6 c50 -10 36 -24 -24 -24
-51 0 -65 7 -48 23 8 9 31 9 72 1z m-2066 -33 c7 -7 6 -12 -5 -16 -18 -7 -78
20 -78 34 0 11 69 -4 83 -18z m1711 19 c34 -13 33 -27 -4 -35 -16 -4 -32 -11
-35 -16 -7 -10 -45 -13 -45 -3 0 4 51 62 57 64 1 0 13 -4 27 -10z m-2767 -25
c-42 -37 -65 -32 -30 7 9 10 26 18 37 18 19 -1 19 -2 -7 -25z m3018 15 c-3 -5
-23 -10 -43 -10 -28 0 -33 3 -22 10 20 13 73 13 65 0z m1685 2 c0 -13 -23 -32
-39 -32 -11 0 -10 4 4 20 19 21 35 26 35 12z m-2885 -132 c13 -19 30 -70 39
-114 11 -53 24 -88 41 -108 30 -36 28 -52 -7 -56 -21 -3 -27 3 -41 40 -9 24
-20 61 -26 83 -7 27 -32 64 -74 110 -94 103 -97 113 -58 158 15 18 18 17 59
-30 24 -26 54 -64 67 -83z m508 108 c-24 -23 -40 -20 -30 7 4 8 17 15 29 15
l22 0 -21 -22z m327 13 c0 -11 -39 -25 -47 -18 -3 3 -2 10 2 16 8 13 45 15 45
2z m1950 5 c0 -7 -133 -106 -143 -106 -14 0 53 70 67 70 6 0 22 9 36 20 23 18
40 25 40 16z m1640 -2 c0 -4 -8 -13 -17 -21 -17 -13 -17 -14 5 -29 12 -9 22
-23 22 -30 0 -19 -30 -18 -44 2 -7 8 -31 18 -54 21 -23 3 -42 8 -42 12 0 3 26
16 58 28 64 24 72 26 72 17z m187 -48 c-4 -14 -107 -21 -107 -8 0 6 14 15 30
21 17 5 33 18 37 27 6 15 8 15 25 -6 10 -13 17 -28 15 -34z m-5406 -33 c35
-32 80 -70 98 -84 l34 -27 -31 -56 c-18 -31 -32 -67 -32 -80 0 -17 -7 -26 -24
-30 -29 -7 -114 -98 -132 -142 -15 -35 -100 -118 -113 -109 -5 3 -2 26 6 52
21 66 21 262 0 322 -14 40 -14 47 0 75 27 54 95 136 112 136 9 0 46 -26 82
-57z m3374 37 c-10 -11 -23 -20 -28 -20 -6 0 -2 9 8 20 10 11 23 20 28 20 6 0
2 -9 -8 -20z m-3289 -12 c4 -5 1 -15 -4 -20 -13 -13 -42 6 -42 27 0 15 36 9
46 -7z m258 -26 c28 -26 70 -59 94 -72 45 -25 59 -56 20 -45 -71 21 -178 108
-178 144 0 11 3 21 7 21 3 0 29 -22 57 -48z m4527 28 c-13 -11 -28 -20 -35
-20 -6 1 0 10 13 20 13 11 28 20 35 20 6 -1 0 -10 -13 -20z m-2871 4 c0 -11
-23 -49 -34 -56 -32 -22 -35 6 -4 39 20 22 38 30 38 17z m1690 -40 c0 -21 -17
-25 -35 -8 -12 13 -13 19 -4 30 13 16 39 2 39 -22z m-2020 -10 c0 -8 -4 -12
-10 -9 -5 3 -10 13 -10 21 0 8 5 12 10 9 6 -3 10 -13 10 -21z m210 22 c0 -3
-4 -8 -10 -11 -5 -3 -10 -1 -10 4 0 6 5 11 10 11 6 0 10 -2 10 -4z m450 -37
c0 -13 -38 -11 -46 2 -9 16 18 30 33 17 7 -6 13 -14 13 -19z m1224 10 c-3 -5
-10 -7 -15 -3 -5 3 -7 10 -3 15 3 5 10 7 15 3 5 -3 7 -10 3 -15z m1596 7 c0
-3 -4 -8 -10 -11 -5 -3 -10 -1 -10 4 0 6 5 11 10 11 6 0 10 -2 10 -4z m140
-11 c0 -10 -10 -15 -26 -15 -22 0 -25 2 -14 15 7 8 19 15 26 15 8 0 14 -7 14
-15z m-5129 -43 c-13 -4 -51 25 -51 40 0 5 14 -1 32 -13 18 -13 26 -25 19 -27z
m133 11 c23 -21 63 -53 89 -71 55 -37 66 -57 44 -79 -14 -15 -20 -15 -61 1
-52 20 -134 89 -147 124 -12 31 -3 62 18 62 9 0 34 -17 57 -37z m2166 22 c0
-11 -11 -15 -47 -14 -28 1 -37 4 -23 6 14 3 29 9 35 14 14 14 35 11 35 -6z
m-3405 -10 c78 -21 260 -116 331 -174 32 -25 75 -72 96 -103 41 -60 80 -156
71 -172 -3 -5 -22 11 -41 35 -125 153 -431 357 -564 375 -53 7 -59 15 -26 38
28 20 58 20 133 1z m2745 5 c0 -14 56 -13 95 2 29 10 38 8 86 -20 30 -16 90
-44 134 -61 44 -17 106 -48 137 -70 32 -21 74 -42 94 -46 39 -7 207 -91 212
-106 2 -5 10 -9 17 -9 34 0 295 -149 325 -185 7 -8 23 -15 36 -15 32 0 126
-36 150 -58 10 -10 44 -30 74 -45 61 -29 175 -113 228 -165 18 -19 68 -53 110
-77 77 -42 104 -75 63 -75 -12 0 -21 -4 -21 -10 0 -30 -94 6 -105 40 -7 21
-53 50 -79 50 -9 0 -13 6 -10 14 4 9 -9 19 -39 29 -29 10 -67 37 -107 76 -34
34 -57 61 -51 61 25 0 6 19 -66 66 -94 62 -111 68 -115 47 -2 -12 -19 -4 -70
35 -69 52 -183 112 -213 112 -9 0 -28 9 -42 19 -13 11 -30 18 -37 15 -8 -3
-16 2 -19 10 -7 17 -78 56 -102 56 -8 0 -39 14 -68 30 -30 17 -65 30 -80 30
-15 0 -30 8 -36 19 -6 10 -35 29 -66 41 -30 12 -55 26 -55 31 0 5 -10 9 -22 9
-12 0 -33 11 -47 24 -42 39 -126 68 -177 60 -25 -3 -50 -2 -57 3 -6 5 -31 15
-54 22 -23 6 -45 16 -48 21 -7 12 2 30 16 30 5 0 9 -4 9 -10z m3008 -12 c-2
-13 -11 -24 -20 -26 -21 -4 -24 18 -6 36 19 19 30 14 26 -10z m-4126 -53 c60
-58 70 -74 89 -136 29 -95 26 -100 -53 -82 -34 8 -83 19 -108 24 -24 6 -46 12
-48 14 -2 2 10 22 27 45 l29 41 -24 55 c-27 62 -29 75 -12 92 20 20 30 14 100
-53z m195 50 c8 -22 -6 -33 -17 -15 -13 20 -12 30 0 30 6 0 13 -7 17 -15z
m722 -37 c24 -27 24 -28 6 -48 -23 -25 -13 -37 20 -22 16 7 25 20 25 34 0 16
3 19 11 11 7 -7 9 -28 5 -57 -7 -42 -10 -46 -36 -46 -15 0 -52 9 -82 19 -29
11 -74 23 -100 26 -45 6 -78 25 -44 25 9 0 16 2 16 4 0 2 3 11 6 19 3 8 -5 25
-18 37 l-23 23 25 -7 c14 -4 35 -10 48 -13 26 -6 30 -38 5 -47 -11 -5 -13 -10
-6 -17 7 -7 24 -4 56 10 25 12 51 21 57 21 7 0 8 6 0 19 -12 23 -14 60 -2 46
4 -6 18 -22 31 -37z m1208 11 c2 -8 -2 -21 -7 -29 -8 -12 -11 -13 -19 -1 -11
17 -2 53 13 48 6 -2 12 -10 13 -18z m-1459 -12 c2 -10 -3 -17 -11 -17 -18 0
-39 24 -30 34 12 12 38 2 41 -17z m2378 12 c24 -6 44 -15 44 -19 0 -9 -77 -1
-145 15 l-50 13 53 1 c29 1 73 -4 98 -10z m-486 -51 c58 -17 115 -40 128 -51
21 -19 82 -119 82 -133 0 -4 -57 -4 -127 -1 -165 8 -204 -1 -267 -60 l-50 -46
-18 23 c-28 35 -22 70 22 124 45 54 47 62 23 88 -22 24 -40 23 -79 -7 -37 -28
-52 -31 -60 -11 -9 24 14 55 59 78 87 44 121 44 287 -4z m178 10 c4 -33 -7
-35 -38 -10 -27 22 -19 45 13 40 16 -2 23 -11 25 -30z m1866 17 c19 -14 18
-15 -12 -15 -30 0 -40 9 -25 23 9 10 15 8 37 -8z m-189 -15 c0 -7 -17 -19 -37
-26 -45 -15 -47 -11 -10 21 28 25 47 27 47 5z m-4848 -51 c32 -28 77 -62 101
-76 23 -14 42 -27 42 -29 0 -2 -9 -8 -20 -14 -60 -32 -210 74 -210 149 0 33
24 25 87 -30z m1733 36 c11 -13 10 -14 -4 -9 -9 3 -16 10 -16 15 0 13 6 11 20
-6z m1868 -4 c3 -8 -1 -12 -9 -9 -7 2 -15 10 -17 17 -3 8 1 12 9 9 7 -2 15
-10 17 -17z m-4698 -68 c132 -73 229 -148 291 -227 30 -38 37 -52 28 -62 -24
-29 -148 -9 -246 38 -141 68 -286 246 -252 309 9 18 11 18 62 -2 28 -11 81
-37 117 -56z m1402 50 c10 -9 18 -22 18 -30 0 -20 -77 -93 -98 -93 -28 0 -33
10 -17 34 8 11 15 30 15 42 0 13 12 32 26 43 32 25 33 25 56 4z m1422 -3 c32
-12 34 -30 4 -30 -12 0 -29 -7 -39 -16 -16 -14 -18 -14 -23 4 -4 11 -14 23
-22 26 -8 3 -12 10 -9 16 8 13 56 13 89 0z m5937 0 c75 -21 198 -117 171 -134
-5 -3 -37 8 -73 23 -35 16 -84 37 -109 47 -61 25 -110 54 -110 65 0 12 76 11
121 -1z m-3957 -6 c25 -9 19 -24 -9 -24 -24 0 -32 10 -18 23 8 8 8 8 27 1z
m1434 -63 c-13 -14 -36 -39 -53 -56 -16 -18 -47 -57 -68 -88 -42 -64 -67 -74
-67 -27 0 25 6 33 35 47 19 9 35 20 35 23 0 3 -13 19 -30 35 -16 16 -30 35
-30 42 0 16 3 16 33 2 31 -14 77 8 109 51 20 28 23 29 40 13 18 -16 18 -17 -4
-42z m-5767 39 c22 -12 26 -50 6 -50 -19 0 -50 37 -42 49 8 14 11 14 36 1z
m5483 -16 c24 -9 9 -24 -24 -24 -41 0 -65 10 -48 21 15 10 50 11 72 3z m-4917
-50 c31 -25 73 -54 94 -65 48 -24 55 -35 29 -49 -65 -35 -218 80 -193 146 7
20 8 19 70 -32z m4789 9 c-10 -10 -19 5 -10 18 6 11 8 11 12 0 2 -7 1 -15 -2
-18z m-3076 -4 c0 -5 -9 -9 -20 -9 -22 0 -27 16 -7 23 15 5 27 -1 27 -14z
m210 7 c0 -20 -26 -40 -35 -26 -10 16 2 40 20 40 8 0 15 -6 15 -14z m1671 -1
c-1 -15 -24 -12 -29 3 -3 9 2 13 12 10 10 -1 17 -7 17 -13z m304 4 c4 -6 5
-12 2 -15 -7 -7 -37 7 -37 17 0 13 27 11 35 -2z m-4518 -21 c26 -25 30 -60 8
-78 -19 -16 -38 -2 -55 40 -10 24 -10 33 0 45 16 20 19 19 47 -7z m2133 -3
c-7 -8 -22 -15 -33 -15 -20 0 -20 0 -1 15 27 20 51 20 34 0z m-2766 -11 c3 -8
2 -12 -4 -9 -6 3 -10 10 -10 16 0 14 7 11 14 -7z m2681 6 c3 -6 -1 -7 -9 -4
-18 7 -21 14 -7 14 6 0 13 -4 16 -10z m370 -20 c3 -5 15 -10 26 -10 10 0 19
-4 19 -10 0 -16 -42 -12 -62 7 -14 13 -21 14 -30 5 -14 -14 -58 -16 -58 -3 0
5 6 12 13 14 22 10 86 7 92 -3z m1625 -15 c0 -8 -4 -15 -9 -15 -5 0 -14 7 -21
15 -10 13 -9 15 9 15 12 0 21 -6 21 -15z m-1510 -5 c0 -5 -4 -10 -10 -10 -5 0
-10 5 -10 10 0 6 5 10 10 10 6 0 10 -4 10 -10z m-1984 -31 c22 -18 67 -45 102
-60 67 -31 76 -43 39 -53 -47 -12 -134 29 -182 85 -50 61 -23 79 41 28z m2044
11 c0 -5 -7 -7 -15 -4 -8 4 -15 8 -15 10 0 2 7 4 15 4 8 0 15 -4 15 -10z
m-1714 -35 c9 -14 24 -25 34 -25 22 0 52 28 45 41 -4 5 11 9 31 9 l38 0 -28
-29 c-39 -40 -73 -53 -137 -49 -48 3 -54 6 -57 26 -7 51 46 70 74 27z m1864 0
c0 -14 -4 -25 -10 -25 -5 0 -10 11 -10 25 0 14 5 25 10 25 6 0 10 -11 10 -25z
m1800 15 c0 -5 -4 -10 -10 -10 -5 0 -10 -7 -10 -16 0 -11 -5 -14 -16 -10 -9 3
-22 6 -30 6 -12 0 -12 4 -2 20 13 21 68 29 68 10z m-3960 -129 c19 -12 48 -21
63 -21 22 0 28 -4 25 -17 -3 -14 -13 -18 -45 -17 -82 1 -183 89 -183 158 l0
31 53 -57 c28 -31 68 -66 87 -77z m534 119 c14 -5 26 -17 26 -26 0 -12 -5 -14
-17 -9 -10 4 -28 7 -40 6 -25 -1 -29 9 -11 27 14 14 11 14 42 2z m1717 -6 c11
-14 11 -18 -4 -29 -23 -17 -57 -8 -57 14 0 34 38 43 61 15z m2709 1 c17 -20
10 -26 -38 -32 -37 -5 -39 -4 -39 21 0 23 4 26 32 26 18 0 38 -7 45 -15z
m-3230 -17 c0 -16 -3 -19 -11 -11 -6 6 -8 16 -5 22 11 17 16 13 16 -11z m374
13 c3 -5 -11 -11 -31 -14 -40 -7 -49 -4 -38 12 7 13 62 15 69 2z m860 -26
c-29 -22 -42 -17 -15 6 13 11 26 17 29 14 3 -3 -3 -12 -14 -20z m131 -10 c-22
-19 -44 -35 -50 -34 -5 0 8 15 30 34 22 19 45 35 50 34 6 0 -8 -15 -30 -34z
m395 -1 c0 -18 -14 -18 -30 1 -16 19 -3 40 16 24 8 -6 14 -18 14 -25z m-2750
17 c14 -4 26 -15 28 -25 3 -15 1 -16 -18 -6 -11 6 -33 10 -48 9 -39 -4 -113
12 -106 22 6 10 107 10 144 0z m2510 -1 c0 -5 -7 -10 -16 -10 -8 0 -12 5 -9
10 3 6 10 10 16 10 5 0 9 -4 9 -10z m-1305 -10 c3 -5 2 -10 -4 -10 -5 0 -13 5
-16 10 -3 6 -2 10 4 10 5 0 13 -4 16 -10z m165 0 c0 -5 -7 -10 -16 -10 -8 0
-12 5 -9 10 3 6 10 10 16 10 5 0 9 -4 9 -10z m-3174 -60 c22 -19 56 -43 74
-53 18 -10 30 -20 27 -24 -11 -10 -91 44 -137 93 -46 49 -37 45 36 -16z m3403
51 c12 -8 12 -12 2 -24 -17 -21 8 -29 30 -10 15 12 19 10 37 -21 15 -25 26
-33 39 -30 12 4 26 -5 42 -27 22 -30 25 -31 37 -14 19 25 46 3 38 -31 -3 -13
-2 -24 3 -24 17 0 65 -49 58 -60 -3 -5 -19 -7 -35 -4 -26 6 -28 4 -23 -15 5
-20 3 -21 -22 -15 -24 6 -27 4 -22 -10 4 -10 1 -16 -8 -16 -17 0 -42 24 -50
49 -3 10 -17 23 -30 29 -14 6 -25 16 -25 22 0 5 -9 10 -20 10 -11 0 -19 6 -17
12 1 7 -9 14 -23 16 -31 4 -52 22 -26 22 10 0 14 5 10 11 -3 6 -17 8 -30 5
-17 -5 -24 -2 -24 8 0 26 18 27 61 5 58 -29 119 -50 119 -40 0 13 -25 31 -109
81 -82 48 -103 80 -54 80 15 0 34 -4 42 -9z m1856 -11 c3 -5 1 -10 -4 -10 -6
0 -11 5 -11 10 0 6 2 10 4 10 3 0 8 -4 11 -10z m-4327 -64 c15 -16 50 -44 77
-62 66 -42 83 -61 61 -70 -9 -3 -27 -3 -40 0 -35 9 -121 90 -145 138 -21 44
-18 74 6 42 7 -10 26 -32 41 -48z m2947 35 c17 -34 6 -48 -26 -31 -12 7 -18
17 -15 27 3 8 6 19 6 24 0 19 20 8 35 -20z m1237 -1 c15 0 28 -4 28 -10 0 -5
-13 -10 -28 -10 -28 0 -52 16 -52 34 0 6 5 5 12 -2 7 -7 25 -12 40 -12z
m-5180 -26 c23 -20 69 -54 100 -76 70 -47 81 -65 67 -107 -6 -17 -15 -31 -19
-31 -11 0 -40 64 -40 88 0 28 -20 39 -35 19 -7 -10 -15 -17 -19 -17 -6 0 -91
112 -107 142 -15 29 5 21 53 -18z m4648 16 c0 -5 -4 -10 -10 -10 -5 0 -10 5
-10 10 0 6 5 10 10 10 6 0 10 -4 10 -10z m4581 -19 c25 -16 111 -90 190 -166
150 -143 337 -305 450 -392 63 -47 171 -110 411 -237 58 -31 132 -76 165 -100
32 -24 175 -102 318 -174 266 -134 304 -151 438 -196 72 -24 266 -115 295
-138 20 -17 -5 -39 -37 -32 -14 4 -98 37 -186 74 -384 161 -472 196 -740 290
-112 39 -189 73 -492 223 -109 53 -128 59 -168 55 -31 -4 -48 -1 -56 8 -14 16
-41 18 -55 4 -7 -7 -19 -4 -36 10 -15 11 -28 20 -30 20 -2 0 -2 -19 0 -41 3
-29 1 -40 -7 -35 -6 4 -11 16 -11 26 0 11 -10 35 -22 53 -13 19 -28 43 -35 53
-10 16 -12 12 -12 -28 -1 -27 -5 -48 -10 -48 -12 0 -34 37 -55 93 -34 92 -50
43 -16 -53 22 -62 23 -70 12 -70 -8 0 -43 90 -62 158 -11 43 -30 49 -30 9 0
-15 -13 1 -37 46 -56 106 -73 81 -28 -40 30 -79 31 -156 3 -161 -12 -2 -20 8
-29 40 -26 98 -61 196 -74 214 -14 18 -14 17 -15 -10 0 -15 12 -66 26 -112 28
-90 27 -138 -4 -132 -13 2 -19 18 -24 65 -7 62 -34 129 -62 152 -22 19 -21 -5
3 -67 25 -64 36 -138 22 -147 -7 -4 -17 8 -27 32 -31 79 -58 133 -66 133 -13
0 -9 -30 14 -102 12 -37 19 -70 16 -74 -12 -11 -29 7 -45 47 -8 21 -19 39 -24
39 -12 0 -69 -89 -69 -108 0 -9 -7 -11 -19 -7 -14 4 -20 -1 -25 -19 -3 -14
-14 -30 -25 -35 -16 -9 -31 17 -145 244 -100 202 -134 260 -161 281 -19 15
-35 29 -35 33 0 4 14 15 31 25 24 14 42 17 85 11 30 -3 80 -6 111 -6 73 0 85
14 108 119 27 122 35 136 106 171 77 39 112 39 170 2z m-5952 -2 c18 -11 31
-23 27 -26 -8 -8 -96 26 -96 38 0 15 33 10 69 -12z m126 5 c14 -6 14 -8 -1
-25 -9 -11 -23 -19 -31 -19 -16 0 -17 22 -1 38 14 14 12 14 33 6z m1566 -19
c-1 -15 -24 -12 -29 3 -3 9 2 13 12 10 10 -1 17 -7 17 -13z m-3911 -155 c32
-13 38 -28 18 -48 -20 -20 -65 -14 -97 13 -35 30 -91 137 -91 174 0 23 8 18
70 -50 38 -42 83 -82 100 -89z m670 150 c0 -5 -13 -10 -30 -10 -16 0 -30 5
-30 10 0 6 14 10 30 10 17 0 30 -4 30 -10z m2660 -16 c30 -9 62 -19 70 -23 18
-9 80 -161 88 -215 6 -45 -6 -56 -60 -56 -39 0 -32 -4 -280 172 -175 125 -176
126 -158 139 21 15 271 3 340 -17z m475 16 c4 -6 -5 -10 -19 -10 -14 0 -26 5
-26 10 0 6 9 10 19 10 11 0 23 -4 26 -10z m1285 -4 c0 -7 -12 -22 -27 -31 -24
-16 -26 -16 -20 0 4 9 7 23 7 31 0 8 9 14 20 14 11 0 20 -6 20 -14z m-185 -6
c3 -5 -3 -10 -14 -10 -12 0 -21 5 -21 10 0 6 6 10 14 10 8 0 18 -4 21 -10z
m-1389 -37 c3 -16 14 -49 25 -74 21 -54 38 -196 22 -186 -6 4 -14 24 -18 44
-4 21 -17 71 -30 113 -35 116 -38 130 -20 130 8 0 17 -12 21 -27z m968 21 c10
-4 16 -18 16 -37 0 -30 0 -30 -21 -11 -31 28 -43 54 -25 54 8 0 21 -3 30 -6z
m-364 -14 c0 -5 -4 -10 -10 -10 -5 0 -10 5 -10 10 0 6 5 10 10 10 6 0 10 -4
10 -10z m299 -37 c17 -21 39 -46 48 -55 25 -27 11 -30 -36 -6 -47 23 -76 60
-67 83 9 23 21 18 55 -22z m-524 -36 c9 -10 23 -16 31 -13 18 7 18 -8 0 -23
-8 -7 -31 -9 -61 -5 l-47 7 6 40 c9 57 17 64 37 36 10 -13 25 -32 34 -42z
m-4295 43 c0 -5 -4 -10 -10 -10 -5 0 -10 5 -10 10 0 6 5 10 10 10 6 0 10 -4
10 -10z m824 -5 c3 -9 0 -15 -9 -15 -8 0 -15 7 -15 15 0 8 4 15 9 15 5 0 11
-7 15 -15z m4561 6 c3 -5 1 -13 -5 -16 -15 -9 -43 3 -35 15 8 13 32 13 40 1z
m-5710 -15 c19 -8 35 -17 35 -20 0 -6 -89 20 -98 28 -11 11 29 6 63 -8z m3410
4 c3 -5 -1 -10 -9 -10 -9 0 -16 5 -16 10 0 6 4 10 9 10 6 0 13 -4 16 -10z
m124 -4 c8 -10 9 -16 1 -21 -13 -8 -30 3 -30 21 0 18 14 18 29 0z m-3061 -64
c12 -32 37 -80 57 -107 39 -55 42 -65 21 -65 -26 0 -104 86 -115 126 -18 64
-13 122 9 109 4 -2 17 -31 28 -63z m-235 31 c-7 -30 -9 -179 -2 -202 7 -25
-20 -23 -46 3 -29 29 -33 86 -11 149 23 64 74 107 59 50z m147 -2 c5 -11 10
-35 10 -53 0 -18 14 -57 30 -87 17 -30 30 -56 30 -58 0 -5 -37 -3 -55 3 -34
14 -61 107 -50 175 7 43 19 49 35 20z m4398 -21 c12 -16 22 -31 22 -34 0 -10
-36 9 -71 36 l-34 28 31 0 c22 0 36 -8 52 -30z m-4854 4 c3 -9 6 -35 6 -59 0
-45 -14 -65 -32 -47 -14 14 -28 83 -22 105 7 21 40 22 48 1z m90 -26 c9 -12
16 -34 16 -49 0 -14 5 -40 11 -58 6 -18 9 -35 5 -38 -13 -13 -47 33 -62 84
-22 76 -5 111 30 61z m290 -9 c3 -17 6 -42 6 -56 0 -13 9 -42 21 -64 24 -47
19 -61 -12 -33 -27 24 -58 91 -59 126 0 61 33 81 44 27z m1591 21 c3 -5 1 -10
-4 -10 -6 0 -11 5 -11 10 0 6 2 10 4 10 3 0 8 -4 11 -10z m-1789 -13 c3 -8 4
-45 2 -83 l-3 -69 -19 67 c-18 66 -17 98 4 98 6 0 13 -6 16 -13z m3099 3 c8
-13 -25 -13 -45 0 -12 8 -9 10 12 10 15 0 30 -4 33 -10z m332 -1 c6 -6 9 -17
7 -24 -3 -7 -1 -16 5 -20 14 -8 14 -35 1 -35 -5 0 -10 9 -10 21 0 14 -5 19
-14 16 -22 -9 -86 12 -86 28 0 7 6 16 13 18 23 10 73 7 84 -4z m173 -14 c16
-19 0 -19 -26 0 -16 12 -16 14 -3 15 9 0 22 -7 29 -15z m1476 -20 c-19 -15
-46 -20 -46 -10 0 6 40 24 55 24 6 0 1 -6 -9 -14z m-346 -4 c0 -12 -28 -22
-34 -12 -3 5 -3 11 1 15 9 9 33 7 33 -3z m-2615 -10 c3 -5 1 -12 -5 -16 -5 -3
-10 1 -10 9 0 18 6 21 15 7z m1175 -1 c0 -5 -7 -10 -15 -10 -8 0 -15 5 -15 10
0 6 7 10 15 10 8 0 15 -4 15 -10z m344 -11 c15 -12 25 -23 23 -26 -8 -7 -77
25 -77 36 0 18 25 13 54 -10z m-2030 -5 c4 -9 4 -19 2 -21 -8 -8 -26 8 -26 23
0 19 16 18 24 -2z m3921 5 c4 -6 5 -12 2 -15 -7 -7 -37 7 -37 17 0 13 27 11
35 -2z m-505 -15 c0 -2 -7 -4 -15 -4 -8 0 -15 4 -15 10 0 5 7 7 15 4 8 -4 15
-8 15 -10z m-1666 -9 c11 -8 28 -15 38 -15 10 0 18 -4 18 -10 0 -5 -21 -10
-47 -11 -27 0 -69 -4 -95 -8 -27 -4 -48 -5 -48 0 0 11 28 19 66 19 27 0 34 4
34 20 0 24 8 25 34 5z m1423 -5 c3 -11 13 -20 22 -20 10 0 32 -11 51 -25 l34
-25 -65 1 c-35 0 -82 6 -103 12 -43 13 -60 37 -27 37 11 0 26 9 33 20 7 11 21
20 31 20 11 0 21 -9 24 -20z m-2637 -14 c0 -11 -19 -15 -25 -6 -3 5 1 10 9 10
9 0 16 -2 16 -4z m40 -16 c0 -5 -4 -10 -10 -10 -5 0 -10 5 -10 10 0 6 5 10 10
10 6 0 10 -4 10 -10z m970 1 c0 -11 -31 -24 -39 -16 -3 3 1 10 9 15 19 12 30
12 30 1z m428 3 c31 -9 26 -41 -11 -68 -23 -17 -31 -18 -47 -8 -11 7 -29 12
-40 12 -11 0 -20 4 -20 9 0 5 -3 16 -6 25 -5 12 0 16 17 16 13 0 31 5 39 10
17 11 36 12 68 4z m1612 -4 c8 -5 12 -11 9 -14 -3 -3 -14 1 -25 9 -21 16 -8
20 16 5z m-1515 -30 c3 -5 -3 -10 -14 -10 -12 0 -21 5 -21 10 0 6 6 10 14 10
8 0 18 -4 21 -10z m748 4 c9 -9 -4 -35 -14 -28 -5 3 -9 12 -9 20 0 14 12 19
23 8z m-693 -64 c0 -21 6 -31 23 -36 12 -4 24 -10 27 -14 3 -4 23 -11 44 -16
44 -10 65 -38 25 -32 -19 2 -24 -1 -23 -17 1 -11 5 -28 9 -37 6 -15 2 -18 -21
-18 -49 0 -75 12 -85 36 -6 19 -16 24 -41 24 -44 0 -55 9 -54 45 1 20 -4 31
-16 33 -12 2 -18 -3 -18 -13 0 -9 -3 -15 -7 -13 -44 21 -64 29 -103 40 l-45
12 70 6 c39 4 96 5 128 2 52 -3 59 -1 64 17 7 29 23 16 23 -19z m-2480 20 c0
-13 -20 -13 -40 0 -12 8 -9 10 13 10 15 0 27 -4 27 -10z m3693 4 c14 -14 -15
-43 -48 -50 -43 -8 -125 3 -125 17 0 6 12 8 29 4 40 -9 101 4 101 21 0 14 31
20 43 8z m410 -31 c-7 -2 -19 -2 -25 0 -7 3 -2 5 12 5 14 0 19 -2 13 -5z
m-3063 -24 c0 -4 -7 -6 -15 -3 -8 4 -15 10 -15 15 0 4 7 6 15 3 8 -4 15 -10
15 -15z m1960 -14 c0 -28 -17 -42 -33 -26 -7 7 -7 18 1 36 14 30 32 24 32 -10z
m-2384 -10 c18 -14 17 -14 -13 -15 -39 0 -65 9 -57 21 8 14 48 11 70 -6z
m3614 -5 c0 -5 -4 -10 -10 -10 -5 0 -10 5 -10 10 0 6 5 10 10 10 6 0 10 -4 10
-10z m2435 0 c-29 -13 -94 -13 -75 0 8 5 33 9 55 9 31 0 36 -2 20 -9z m-3395
-21 c0 -6 -4 -7 -10 -4 -5 3 -10 11 -10 16 0 6 5 7 10 4 6 -3 10 -11 10 -16z
m421 1 c-13 -11 -35 -20 -50 -20 -23 1 -21 3 12 15 21 7 41 16 44 19 4 3 9 6
12 6 3 -1 -5 -10 -18 -20z m419 3 c0 -14 -19 -38 -25 -32 -8 8 5 39 16 39 5 0
9 -3 9 -7z m2617 -15 c-3 -8 -6 -5 -6 6 -1 11 2 17 5 13 3 -3 4 -12 1 -19z
m160 6 c-3 -3 -12 -4 -19 -1 -8 3 -5 6 6 6 11 1 17 -2 13 -5z m-3929 -60 c31
-31 69 -62 83 -69 42 -22 55 -43 41 -66 -18 -28 -7 -40 27 -28 32 11 78 -2 87
-26 4 -8 11 -15 18 -15 6 0 47 -34 91 -76 44 -41 69 -70 57 -64 -34 16 -38 6
-13 -35 11 -20 21 -39 21 -42 0 -10 -102 81 -108 96 -7 21 -22 31 -48 31 -22
0 -51 26 -41 36 3 3 15 1 26 -6 17 -8 21 -8 21 4 0 22 -57 58 -108 68 -73 13
-94 32 -117 103 -5 16 -8 17 -15 5 -7 -11 -11 -11 -24 -1 -22 18 -20 28 5 34
13 4 18 10 14 17 -5 8 -23 10 -56 6 -53 -7 -58 -3 -32 26 14 16 15 23 5 39
-23 37 8 19 66 -37z m832 46 c0 -5 -4 -10 -10 -10 -5 0 -10 5 -10 10 0 6 5 10
10 10 6 0 10 -4 10 -10z m-3322 -16 c35 -25 26 -31 -40 -26 -69 5 -115 21 -63
22 17 0 37 5 45 10 21 13 32 12 58 -6z m1582 6 c0 -5 -4 -10 -9 -10 -6 0 -13
5 -16 10 -3 6 1 10 9 10 9 0 16 -4 16 -10z m-1355 -20 c3 -5 2 -10 -4 -10 -5
0 -13 5 -16 10 -3 6 -2 10 4 10 5 0 13 -4 16 -10z m795 0 c0 -5 -9 -10 -20
-10 -11 0 -20 5 -20 10 0 6 9 10 20 10 11 0 20 -4 20 -10z m1130 0 c0 -5 -4
-10 -10 -10 -5 0 -10 5 -10 10 0 6 5 10 10 10 6 0 10 -4 10 -10z m690 0 c0 -5
-4 -10 -10 -10 -5 0 -10 5 -10 10 0 6 5 10 10 10 6 0 10 -4 10 -10z m505 0 c3
-5 1 -10 -4 -10 -6 0 -11 5 -11 10 0 6 2 10 4 10 3 0 8 -4 11 -10z m345 0 c0
-5 -5 -10 -11 -10 -5 0 -7 5 -4 10 3 6 8 10 11 10 2 0 4 -4 4 -10z m265 0 c3
-5 2 -10 -4 -10 -5 0 -13 5 -16 10 -3 6 -2 10 4 10 5 0 13 -4 16 -10z m1975
-12 c0 -13 -23 -5 -28 10 -2 7 2 10 12 6 9 -3 16 -11 16 -16z m340 6 c0 -2 -7
-4 -15 -4 -8 0 -15 4 -15 10 0 5 7 7 15 4 8 -4 15 -8 15 -10z m-4049 -4 c21
-12 25 -35 8 -45 -12 -8 -49 23 -49 42 0 16 14 17 41 3z m150 -3 c-1 -12 -15
-9 -19 4 -3 6 1 10 8 8 6 -3 11 -8 11 -12z m547 -15 c3 -10 -4 -13 -24 -10
-15 2 -29 9 -32 16 -3 10 4 13 24 10 15 -2 29 -9 32 -16z m2902 8 c0 -5 -7
-10 -16 -10 -8 0 -12 5 -9 10 3 6 10 10 16 10 5 0 9 -4 9 -10z m-2510 -26 c0
-2 -7 -4 -15 -4 -8 0 -15 4 -15 10 0 5 7 7 15 4 8 -4 15 -8 15 -10z m466 -11
c-10 -10 -19 5 -10 18 6 11 8 11 12 0 2 -7 1 -15 -2 -18z m179 -3 c10 -11 16
-23 12 -26 -9 -9 -47 16 -47 31 0 21 14 19 35 -5z m1553 1 c3 -8 -1 -12 -9 -9
-7 2 -15 10 -17 17 -3 8 1 12 9 9 7 -2 15 -10 17 -17z m550 0 c3 -8 -1 -12 -9
-9 -7 2 -15 10 -17 17 -3 8 1 12 9 9 7 -2 15 -10 17 -17z m277 9 c3 -6 16 -8
29 -4 29 7 126 -52 126 -77 0 -32 -120 -37 -157 -7 -15 12 -17 32 -3 23 18
-11 10 11 -10 30 -11 10 -20 24 -20 32 0 15 26 18 35 3z m-3961 -30 c7 -7 5
-15 -5 -25 -13 -13 -21 -14 -55 -3 -24 8 -40 20 -42 32 -4 17 0 18 44 12 27
-3 53 -11 58 -16z m3396 10 c0 -5 -4 -10 -10 -10 -5 0 -10 5 -10 10 0 6 5 10
10 10 6 0 10 -4 10 -10z m-5060 -10 c0 -5 -7 -10 -16 -10 -8 0 -12 5 -9 10 3
6 10 10 16 10 5 0 9 -4 9 -10z m2820 0 c12 -8 11 -10 -7 -10 -12 0 -25 5 -28
10 -8 13 15 13 35 0z m151 -9 c22 -18 23 -20 6 -27 -10 -3 -30 -1 -44 5 -21
10 -28 9 -34 -1 -7 -10 -11 -10 -21 0 -14 14 -4 28 27 35 36 8 42 7 66 -12z
m201 5 c29 -4 32 -15 6 -21 -28 -7 -78 9 -78 26 0 7 10 9 28 5 15 -4 35 -8 44
-10z m1218 5 c0 -12 -20 -25 -27 -18 -7 7 6 27 18 27 5 0 9 -4 9 -9z m-956
-10 c7 -11 -18 -21 -55 -21 -29 0 -39 14 -16 23 21 9 66 7 71 -2z m1366 -4 c0
-14 -41 -37 -63 -37 -14 1 39 50 54 50 5 0 9 -6 9 -13z m120 8 c0 -16 -31 -63
-45 -69 -28 -11 -37 -7 -30 14 4 13 2 20 -7 20 -7 1 3 9 22 19 36 19 60 25 60
16z m587 -36 c58 -22 -7 -31 -94 -13 -32 6 -29 24 5 24 15 0 34 5 42 10 10 6
16 6 19 -1 2 -6 14 -14 28 -20z m-5447 11 c0 -5 -4 -10 -10 -10 -5 0 -10 5
-10 10 0 6 5 10 10 10 6 0 10 -4 10 -10z m5180 2 c0 -10 -45 -32 -63 -32 -7 1
4 9 23 20 41 23 40 22 40 12z m-3481 -15 c6 -8 8 -17 5 -20 -9 -8 -44 11 -44
23 0 15 26 12 39 -3z m3341 3 c0 -13 -34 -30 -59 -30 -12 0 -21 5 -21 10 0 6
11 10 24 10 14 0 28 5 31 10 8 13 25 13 25 0z m-3048 -22 c-7 -7 -12 -8 -12
-2 0 14 12 26 19 19 2 -3 -1 -11 -7 -17z m358 1 c0 -5 -4 -9 -10 -9 -5 0 -10
7 -10 16 0 8 5 12 10 9 6 -3 10 -10 10 -16z m2740 6 c0 -8 -7 -15 -15 -15 -8
0 -15 7 -15 15 0 8 7 15 15 15 8 0 15 -7 15 -15z m-2403 -21 c-3 -4 -14 -3
-24 0 -15 6 -15 8 -3 16 16 10 39 -4 27 -16z m2607 11 c20 -8 36 -17 36 -20 0
-2 -23 -1 -50 2 -42 5 -53 3 -65 -13 -8 -10 -15 -15 -15 -10 0 11 40 56 51 56
3 0 23 -7 43 -15z m551 -26 c14 -18 35 -49 46 -71 l20 -39 -33 -13 c-18 -8
-62 -22 -98 -31 -36 -9 -73 -18 -82 -21 -13 -4 -18 0 -18 13 0 21 53 53 114
68 37 9 41 13 39 39 -1 16 -11 39 -23 51 -24 25 -25 35 -6 35 8 0 26 -14 41
-31z m-1265 11 c0 -5 -6 -10 -14 -10 -8 0 -18 5 -21 10 -3 6 3 10 14 10 12 0
21 -4 21 -10z m70 0 c0 -11 -40 -34 -47 -26 -3 3 -3 12 0 21 7 16 47 21 47 5z
m-4670 -29 c0 -12 -20 -25 -27 -18 -7 7 6 27 18 27 5 0 9 -4 9 -9z m1478 -2
c-2 -6 -8 -10 -13 -10 -5 0 -11 4 -13 10 -2 6 4 11 13 11 9 0 15 -5 13 -11z
m1968 -5 c18 -15 17 -15 -16 -10 -43 8 -64 26 -29 26 14 0 34 -7 45 -16z
m1308 10 c26 -10 18 -24 -11 -23 -16 1 -36 -2 -45 -6 -22 -9 -23 -1 -2 19 16
17 33 20 58 10z m671 -4 c3 -5 2 -10 -4 -10 -5 0 -13 5 -16 10 -3 6 -2 10 4
10 5 0 13 -4 16 -10z m-5995 -10 c0 -5 -4 -10 -10 -10 -5 0 -10 5 -10 10 0 6
5 10 10 10 6 0 10 -4 10 -10z m2254 1 c4 -5 24 -12 45 -16 22 -3 49 -17 62
-31 25 -26 19 -45 -9 -27 -10 6 -32 14 -49 17 -17 4 -37 14 -44 22 -17 20 -53
19 -45 -2 6 -15 4 -15 -11 -3 -10 7 -20 15 -22 16 -2 1 2 9 9 18 14 16 55 20
64 6z m3183 -13 c-3 -8 -6 -5 -6 6 -1 11 2 17 5 13 3 -3 4 -12 1 -19z m203 2
c0 -5 -17 -14 -37 -19 -47 -13 -124 -15 -104 -2 7 5 22 6 33 3 13 -3 24 1 30
12 10 17 78 23 78 6z m-543 -19 c16 -25 -14 -88 -40 -83 -9 2 -17 10 -17 18 0
10 -5 12 -17 5 -36 -17 -108 -38 -120 -34 -23 8 6 44 53 65 35 15 48 17 59 8
18 -15 35 -5 35 21 0 25 31 25 47 0z m73 11 c0 -4 -5 -13 -12 -20 -8 -8 -2
-11 28 -9 46 2 59 -14 21 -27 -22 -8 -33 -6 -55 11 -37 28 -41 53 -8 53 14 0
26 -4 26 -8z m-5610 -12 c0 -5 -4 -10 -10 -10 -5 0 -10 5 -10 10 0 6 5 10 10
10 6 0 10 -4 10 -10z m700 0 c0 -5 -2 -10 -4 -10 -3 0 -8 5 -11 10 -3 6 -1 10
4 10 6 0 11 -4 11 -10z m6860 -16 c0 -14 -4 -23 -10 -19 -5 3 -10 15 -10 26 0
10 5 19 10 19 6 0 10 -12 10 -26z m-3037 -27 c29 2 36 -11 11 -21 -25 -10
-102 -7 -109 4 -3 6 1 10 10 10 8 0 21 11 27 25 l11 25 12 -23 c8 -15 19 -21
38 -20z m-3943 23 c0 -5 -4 -10 -9 -10 -6 0 -13 5 -16 10 -3 6 1 10 9 10 9 0
16 -4 16 -10z m4426 -5 c-22 -17 -46 -20 -46 -6 0 11 18 19 45 20 20 0 20 0 1
-14z m-2405 -28 c-13 -13 -26 -3 -16 12 3 6 11 8 17 5 6 -4 6 -10 -1 -17z
m319 13 c0 -5 -4 -10 -10 -10 -5 0 -10 5 -10 10 0 6 5 10 10 10 6 0 10 -4 10
-10z m-2789 -41 c25 -16 54 -38 64 -49 17 -18 16 -19 -10 -26 -42 -11 -78 7
-97 48 -10 20 -27 39 -38 43 -11 3 -20 11 -20 17 0 16 50 0 101 -33z m6119 16
c7 -9 10 -18 7 -21 -7 -8 -77 18 -77 28 0 14 57 8 70 -7z m-1625 -15 c7 5 20
4 35 -3 28 -14 38 -37 16 -37 -28 0 -86 28 -86 41 0 10 3 10 12 1 7 -7 16 -8
23 -2z m565 0 c0 -5 -4 -10 -10 -10 -5 0 -10 5 -10 10 0 6 5 10 10 10 6 0 10
-4 10 -10z m2776 -17 c-10 -10 -19 5 -10 18 6 11 8 11 12 0 2 -7 1 -15 -2 -18z
m-1871 -3 c3 -5 -1 -10 -10 -10 -9 0 -13 5 -10 10 3 6 8 10 10 10 2 0 7 -4 10
-10z m-3580 -10 c7 -11 -35 -23 -61 -18 -9 1 -19 9 -22 16 -5 15 74 17 83 2z
m341 0 c18 -7 30 -7 40 1 10 8 19 4 39 -17 34 -36 35 -67 1 -35 -14 13 -30 20
-36 16 -6 -4 -16 -2 -23 4 -7 5 -39 11 -72 13 -35 2 -60 8 -63 16 -5 15 74 17
114 2z m2429 0 c-3 -5 -1 -19 5 -30 9 -17 8 -20 -9 -20 -11 0 -21 6 -24 13 -4
14 14 47 26 47 4 0 5 -4 2 -10z m-1752 -12 c2 -7 0 -24 -4 -37 -8 -19 -14 -22
-37 -16 -15 3 -31 11 -37 17 -7 7 -2 9 18 4 26 -6 27 -5 18 13 -6 11 -11 22
-11 25 0 12 48 6 53 -6z m2437 4 c0 -12 -23 -32 -37 -32 -7 0 -13 5 -13 10 0
6 7 10 15 10 8 0 15 5 15 10 0 6 5 10 10 10 6 0 10 -4 10 -8z m-5983 -34 c19
-16 6 -28 -32 -28 -34 0 -49 17 -39 44 4 12 12 13 32 5 14 -6 32 -15 39 -21z
m831 10 c19 -19 14 -28 -13 -28 -18 0 -25 5 -25 20 0 22 20 26 38 8z m4280
-10 c-3 -7 -23 -14 -46 -16 -33 -2 -42 0 -42 12 0 12 11 16 46 16 32 0 44 -4
42 -12z m297 2 c-3 -5 -17 -10 -31 -10 -13 0 -24 5 -24 10 0 6 14 10 31 10 17
0 28 -4 24 -10z m380 0 c4 -6 -7 -10 -25 -10 -18 0 -29 4 -25 10 3 6 15 10 25
10 10 0 22 -4 25 -10z m-1045 -6 c0 -3 -5 -14 -11 -25 -9 -17 -17 -19 -62 -13
-74 9 -83 24 -15 24 31 0 60 5 63 10 7 11 25 14 25 4z m230 -14 c32 -5 40 -9
28 -14 -23 -11 -100 6 -106 23 -4 11 0 12 14 6 11 -4 39 -11 64 -15z m930 0
c0 -5 -9 -10 -20 -10 -11 0 -20 5 -20 10 0 6 9 10 20 10 11 0 20 -4 20 -10z
m-4250 -10 c0 -5 -4 -10 -10 -10 -5 0 -10 5 -10 10 0 6 5 10 10 10 6 0 10 -4
10 -10z m1185 0 c3 -6 -4 -10 -17 -10 -18 0 -20 2 -8 10 19 12 18 12 25 0z
m-1489 -15 c18 -14 17 -15 -15 -13 -19 2 -36 9 -39 16 -5 17 30 15 54 -3z
m1674 11 c0 -11 -19 -15 -25 -6 -3 5 1 10 9 10 9 0 16 -2 16 -4z m2530 -16 c0
-5 -4 -10 -10 -10 -5 0 -10 5 -10 10 0 6 5 10 10 10 6 0 10 -4 10 -10z m65 0
c3 -5 1 -10 -4 -10 -6 0 -11 5 -11 10 0 6 2 10 4 10 3 0 8 -4 11 -10z m-2505
-15 c14 -16 10 -18 -14 -9 -9 3 -16 10 -16 15 0 14 16 11 30 -6z m170 -51 c32
-64 18 -69 -28 -10 -25 33 -28 56 -8 56 8 0 24 -20 36 -46z m1833 25 c-15 -15
-95 -23 -130 -14 l-28 7 23 9 c13 5 33 7 45 4 12 -3 38 -1 57 3 39 10 49 7 33
-9z m-2913 1 c0 -5 -4 -10 -10 -10 -5 0 -10 5 -10 10 0 6 5 10 10 10 6 0 10
-4 10 -10z m2984 -9 c3 -5 -3 -11 -15 -14 -16 -4 -18 -3 -8 9 13 16 16 17 23
5z m-2216 -14 c14 -16 -11 -57 -34 -57 -19 0 -18 16 2 24 24 9 6 26 -29 26
-24 0 -28 3 -17 10 22 14 66 12 78 -3z m-963 -7 c10 -16 -5 -49 -27 -61 -22
-12 -181 8 -173 22 3 4 31 10 62 14 32 4 72 13 88 20 38 17 42 17 50 5z m289
-11 c-12 -13 -20 -16 -22 -9 -3 7 2 16 9 21 25 16 32 9 13 -12z m2534 14 c-10
-2 -26 -2 -35 0 -10 3 -2 5 17 5 19 0 27 -2 18 -5z m-2448 -13 c0 -5 -4 -10
-10 -10 -5 0 -10 5 -10 10 0 6 5 10 10 10 6 0 10 -4 10 -10z m2160 6 c0 -3 -4
-8 -10 -11 -5 -3 -10 -1 -10 4 0 6 5 11 10 11 6 0 10 -2 10 -4z m1700 -15 c0
-5 -9 -13 -20 -16 -26 -8 -82 4 -74 16 7 12 94 12 94 0z m-4040 -36 c0 -19 -2
-35 -5 -35 -10 0 -24 40 -19 54 11 28 24 17 24 -19z m1530 15 c0 -5 -4 -10
-10 -10 -5 0 -10 5 -10 10 0 6 5 10 10 10 6 0 10 -4 10 -10z m-2134 -9 c-8
-12 -151 -25 -173 -16 -16 7 -15 9 7 15 36 11 172 12 166 1z m1230 -24 c8 3
14 0 14 -6 0 -15 -43 -14 -58 1 -20 20 -13 30 9 14 12 -8 28 -12 35 -9z m-288
-49 c68 -57 82 -85 61 -126 l-13 -27 -6 44 c-5 29 -15 50 -31 62 -29 23 -33
23 -69 4 -32 -17 -40 -35 -15 -35 8 0 15 -9 15 -19 0 -11 5 -23 11 -27 21 -13
-8 -23 -125 -44 -82 -15 -122 -18 -129 -11 -7 7 -5 28 8 68 10 32 19 64 21 70
2 9 30 12 99 11 75 -1 99 2 111 14 14 14 14 18 -1 42 -26 40 -6 31 63 -26z
m831 38 c9 -11 8 -15 -5 -20 -36 -14 -83 2 -70 23 10 16 61 14 75 -3z m2031
-16 c0 -5 -6 -10 -14 -10 -8 0 -18 5 -21 10 -3 6 3 10 14 10 12 0 21 -4 21
-10z m-2375 -20 c-3 -5 -10 -10 -16 -10 -5 0 -9 5 -9 10 0 6 7 10 16 10 8 0
12 -4 9 -10z m1805 0 c0 -13 -11 -13 -30 0 -12 8 -11 10 8 10 12 0 22 -4 22
-10z m1169 0 c-26 -15 -81 -17 -86 -2 -3 9 10 12 49 12 38 -1 48 -3 37 -10z
m-5309 -20 c8 -5 12 -12 9 -15 -8 -8 -39 5 -39 16 0 11 11 11 30 -1z m4440
-11 c0 -5 -7 -9 -15 -9 -8 0 -15 7 -15 15 0 9 6 12 15 9 8 -4 15 -10 15 -15z
m-3524 -21 c55 -38 74 -69 22 -38 -47 28 -95 69 -82 70 7 0 33 -15 60 -32z
m-798 10 c21 -21 13 -27 -18 -17 -16 6 -30 15 -30 20 0 13 34 11 48 -3z m5044
-7 c-21 -18 -172 -81 -194 -81 -19 0 38 39 67 46 16 4 40 13 54 20 14 8 36 14
48 14 12 0 25 5 28 10 3 6 9 10 13 10 4 -1 -3 -9 -16 -19z m-772 -6 c0 -8 -4
-15 -10 -15 -5 0 -10 7 -10 15 0 8 5 15 10 15 6 0 10 -7 10 -15z m-1750 -5 c0
-14 -35 -30 -69 -30 -16 0 -31 -6 -34 -12 -8 -23 -20 1 -13 27 6 23 11 25 61
25 30 0 55 -4 55 -10z m153 -35 c26 -24 47 -48 47 -54 0 -6 9 -15 20 -21 20
-11 27 -30 11 -30 -8 0 -96 58 -170 112 -28 20 -20 38 17 38 18 -1 44 -16 75
-45z m-360 16 c8 -8 -6 -11 -45 -11 -40 0 -59 5 -69 17 -13 15 -9 16 45 10 32
-3 64 -11 69 -16z m1882 -1 c-3 -5 -13 -10 -21 -10 -8 0 -12 5 -9 10 3 6 13
10 21 10 8 0 12 -4 9 -10z m-3154 -106 c22 -15 50 -41 62 -58 20 -28 20 -29 1
-22 -41 15 -161 88 -199 121 l-40 35 68 -24 c37 -13 86 -36 108 -52z m294 36
c3 -5 1 -10 -4 -10 -6 0 -11 5 -11 10 0 6 2 10 4 10 3 0 8 -4 11 -10z m1168
-11 c16 -9 22 -9 25 0 7 20 27 12 61 -23 l33 -34 -23 -15 c-39 -24 -64 -28
-85 -13 -18 14 -18 15 14 27 l33 11 -27 14 c-14 8 -43 14 -64 14 -46 0 -72 9
-64 21 8 13 71 11 97 -2z m2187 -9 c0 -5 -2 -10 -4 -10 -3 0 -8 5 -11 10 -3 6
-1 10 4 10 6 0 11 -4 11 -10z m-1469 -40 c32 -26 3 -27 -31 0 -19 15 -21 20
-9 20 9 0 27 -9 40 -20z m-481 -20 c0 -5 -4 -10 -10 -10 -5 0 -10 5 -10 10 0
6 5 10 10 10 6 0 10 -4 10 -10z m87 -44 c15 -2 29 -9 31 -16 3 -9 -2 -11 -17
-7 -16 4 -21 1 -21 -15 0 -32 -42 -98 -66 -104 -27 -7 -44 2 -44 22 0 10 7 13
25 8 20 -5 26 -1 35 20 5 14 16 26 25 26 23 0 18 21 -12 53 -27 28 -27 29 -5
23 12 -4 34 -9 49 -10z m-587 -6 c0 -13 -20 -13 -40 0 -12 8 -9 10 13 10 15 0
27 -4 27 -10z m500 -21 c0 -6 -4 -7 -10 -4 -5 3 -10 11 -10 16 0 6 5 7 10 4 6
-3 10 -11 10 -16z m-40 -49 c0 -5 -4 -10 -10 -10 -5 0 -10 5 -10 10 0 6 5 10
10 10 6 0 10 -4 10 -10z m1435 0 c-3 -5 -10 -10 -16 -10 -5 0 -9 5 -9 10 0 6
7 10 16 10 8 0 12 -4 9 -10z m-1125 -19 c-15 -29 -14 -30 40 -37 56 -7 90 -38
90 -80 0 -12 5 -26 10 -29 17 -10 11 -37 -12 -62 -27 -29 -48 -30 -48 -2 0 15
-4 19 -15 15 -8 -3 -22 -9 -30 -12 -21 -9 -30 22 -16 53 15 33 7 41 -18 19
-23 -21 -30 -12 -37 51 -5 40 -2 53 16 76 25 31 35 36 20 8z m-339 -31 c-13
-11 -28 -20 -35 -20 -6 0 3 9 19 20 38 25 47 25 16 0z m-1 -100 c-8 -5 -22
-10 -30 -10 -13 0 -13 1 0 10 8 5 22 10 30 10 13 0 13 -1 0 -10z"/>
<path d="M5187 4576 c-3 -8 -2 -18 3 -21 13 -8 24 15 12 27 -6 6 -11 4 -15 -6z"/>
<path d="M5195 4510 c-9 -14 22 -60 39 -60 7 0 19 7 26 15 10 13 9 15 -9 15
-14 0 -21 6 -21 20 0 21 -24 28 -35 10z"/>
<path d="M6440 3970 c-17 -64 -11 -85 25 -85 l30 0 0 60 c0 54 -2 60 -22 63
-18 3 -24 -4 -33 -38z"/>
<path d="M6282 3929 c2 -7 10 -15 17 -17 8 -3 12 1 9 9 -2 7 -10 15 -17 17 -8
3 -12 -1 -9 -9z"/>
<path d="M5604 3855 c-12 -30 4 -45 46 -45 57 0 50 25 -13 49 -22 9 -29 8 -33
-4z"/>
<path d="M6454 3849 c-11 -19 -108 -59 -142 -59 -26 0 -33 -4 -30 -17 2 -11
15 -20 33 -23 25 -4 31 -11 35 -40 4 -24 8 -31 14 -22 5 8 17 11 31 8 36 -9
41 13 10 38 l-28 22 36 -4 c32 -4 38 0 56 29 24 40 27 79 7 79 -8 0 -18 -5
-22 -11z"/>
<path d="M5737 3843 c-13 -12 -7 -23 13 -23 14 0 20 -7 20 -22 1 -22 1 -22 15
-4 13 17 13 22 -2 38 -17 19 -35 23 -46 11z"/>
<path d="M6160 3820 c0 -5 5 -10 11 -10 5 0 7 5 4 10 -3 6 -8 10 -11 10 -2 0
-4 -4 -4 -10z"/>
<path d="M5987 3803 c-14 -13 -6 -23 18 -23 16 0 25 6 25 15 0 15 -31 21 -43
8z"/>
<path d="M5860 3790 c20 -13 40 -13 40 0 0 6 -12 10 -27 10 -22 0 -25 -2 -13
-10z"/>
<path d="M6220 3790 c0 -5 5 -10 10 -10 6 0 10 5 10 10 0 6 -4 10 -10 10 -5 0
-10 -4 -10 -10z"/>
<path d="M5670 3770 c-8 -5 -11 -12 -7 -16 4 -4 13 -2 19 4 15 15 7 24 -12 12z"/>
<path d="M6180 3730 c0 -5 5 -10 10 -10 6 0 10 5 10 10 0 6 -4 10 -10 10 -5 0
-10 -4 -10 -10z"/>
<path d="M4456 4372 c-3 -6 -1 -14 5 -17 15 -10 25 3 12 16 -7 7 -13 7 -17 1z"/>
<path d="M4437 4323 c-4 -3 -7 -11 -7 -17 0 -6 5 -5 12 2 6 6 9 14 7 17 -3 3
-9 2 -12 -2z"/>
<path d="M4335 4210 c-10 -16 14 -40 40 -40 33 0 37 11 11 31 -27 21 -42 24
-51 9z"/>
<path d="M4332 4108 c-17 -17 -15 -28 6 -28 19 0 42 18 42 32 0 12 -35 9 -48
-4z"/>
<path d="M4545 3971 c-3 -5 -1 -12 4 -15 13 -8 42 4 35 15 -7 12 -31 12 -39 0z"/>
<path d="M4275 3770 c3 -5 8 -10 11 -10 2 0 4 5 4 10 0 6 -5 10 -11 10 -5 0
-7 -4 -4 -10z"/>
<path d="M4920 3756 c0 -8 5 -18 10 -21 6 -3 10 1 10 9 0 8 -4 18 -10 21 -5 3
-10 -1 -10 -9z"/>
<path d="M4660 3730 c0 -5 12 -10 26 -10 14 0 23 4 19 10 -3 6 -15 10 -26 10
-10 0 -19 -4 -19 -10z"/>
<path d="M3180 3840 c0 -8 24 -20 41 -20 6 0 8 4 5 9 -8 12 -46 21 -46 11z"/>
<path d="M3106 3772 c-7 -12 22 -38 31 -28 4 3 0 14 -9 22 -9 10 -18 12 -22 6z"/>
<path d="M3214 3765 c-10 -8 -14 -15 -7 -15 6 0 13 -12 15 -27 4 -37 26 -40
38 -6 5 15 15 36 20 46 9 14 6 17 -18 17 -15 0 -37 -7 -48 -15z"/>
<path d="M3130 3615 c-7 -8 -8 -15 -2 -15 5 0 15 7 22 15 7 8 8 15 2 15 -5 0
-15 -7 -22 -15z"/>
<path d="M3962 3799 c2 -7 10 -15 17 -17 8 -3 12 1 9 9 -2 7 -10 15 -17 17 -8
3 -12 -1 -9 -9z"/>
<path d="M8050 3670 c0 -5 7 -10 15 -10 8 0 15 5 15 10 0 6 -7 10 -15 10 -8 0
-15 -4 -15 -10z"/>
<path d="M5462 3619 c2 -7 10 -15 17 -17 8 -3 12 1 9 9 -2 7 -10 15 -17 17 -8
3 -12 -1 -9 -9z"/>
<path d="M5455 2580 c3 -5 13 -10 21 -10 8 0 12 5 9 10 -3 6 -13 10 -21 10 -8
0 -12 -4 -9 -10z"/>
<path d="M4860 2720 c-13 -25 6 -36 45 -26 32 8 32 20 0 34 -33 15 -32 15 -45
-8z"/>
<path d="M5538 2753 c-16 -2 -28 -8 -28 -12 0 -12 35 -41 49 -41 6 0 30 -9 52
-21 79 -40 111 -4 48 54 -29 27 -51 31 -121 20z"/>
<path d="M5200 2506 c0 -22 17 -28 24 -10 9 22 8 24 -9 24 -8 0 -15 -6 -15
-14z"/>
<path d="M5410 2371 c0 -5 7 -14 15 -21 8 -7 15 -19 15 -27 0 -10 6 -13 16 -9
9 3 21 6 27 6 6 0 -2 14 -18 30 -28 29 -55 39 -55 21z"/>
<path d="M5355 2360 c-3 -5 -2 -10 4 -10 5 0 13 5 16 10 3 6 2 10 -4 10 -5 0
-13 -4 -16 -10z"/>
<path d="M6962 1260 c1 -13 9 -25 16 -28 17 -5 15 23 -4 39 -14 11 -15 10 -12
-11z"/>
<path d="M3353 4990 c-38 -9 -83 -36 -83 -50 0 -14 13 -13 78 6 55 16 154 15
211 -2 36 -11 22 17 -20 38 -36 19 -126 23 -186 8z"/>
<path d="M2809 4919 c-32 -32 -21 -54 26 -54 34 0 40 3 43 23 4 26 -13 52 -34
52 -8 0 -23 -9 -35 -21z"/>
<path d="M2658 4849 c-31 -12 -43 -36 -27 -55 13 -16 75 -19 84 -4 3 6 -2 10
-12 10 -10 0 -25 4 -33 10 -12 7 -12 12 4 29 11 12 17 21 15 20 -2 0 -16 -5
-31 -10z"/>
<path d="M2824 4680 c-22 -9 -84 -75 -84 -91 0 -11 49 21 70 46 8 10 30 15 66
15 34 0 58 5 68 16 9 8 16 16 16 17 0 6 -119 3 -136 -3z"/>
<path d="M3680 4012 c0 -14 11 -21 26 -15 21 8 17 23 -6 23 -11 0 -20 -4 -20
-8z"/>
<path d="M3900 3920 c0 -5 5 -10 11 -10 5 0 7 5 4 10 -3 6 -8 10 -11 10 -2 0
-4 -4 -4 -10z"/>
<path d="M2920 2066 c0 -2 7 -9 15 -16 9 -7 15 -8 15 -2 0 5 -7 12 -15 16 -8
3 -15 4 -15 2z"/>
<path d="M88 1900 c-71 -9 -88 -15 -88 -32 0 -7 17 -8 48 -5 26 4 157 11 292
18 135 6 259 14 275 19 39 11 -436 10 -527 0z"/>
<path d="M966 1841 c-10 -16 146 -24 424 -22 283 2 353 7 328 22 -17 12 -745
12 -752 0z"/>
<path d="M7614 745 c-4 -10 -2 -46 5 -80 10 -47 10 -68 2 -84 -14 -25 -24 -26
-42 -4 -28 33 -111 93 -130 93 -32 0 -21 -25 31 -69 53 -45 102 -110 115 -151
4 -14 21 -56 37 -94 17 -39 33 -96 36 -134 5 -42 12 -67 21 -70 11 -4 13 11 9
79 -4 68 -11 100 -41 168 -20 47 -37 92 -37 101 0 9 11 31 25 50 29 40 31 77
9 146 -20 60 -31 73 -40 49z"/>
<path d="M6920 726 c0 -22 16 -52 52 -97 24 -30 31 -52 43 -145 8 -60 15 -136
15 -169 0 -68 13 -100 30 -75 7 10 8 45 3 100 -9 97 -8 168 1 177 11 11 148
-90 226 -167 60 -60 90 -102 150 -210 46 -82 83 -136 94 -138 9 -2 38 12 63
32 27 21 58 36 73 36 30 0 56 23 45 40 -3 5 -21 10 -39 10 -40 0 -46 7 -75 90
-33 93 -148 330 -174 358 -32 35 -100 80 -131 88 -46 11 -28 -18 44 -72 81
-61 111 -106 179 -264 83 -194 89 -260 25 -260 -18 0 -31 16 -70 90 -75 142
-159 246 -276 340 -57 46 -142 122 -190 169 -58 56 -88 79 -88 67z"/>
</g>
</svg>
